<svg width="272" height="190" viewBox="0 0 272 190" fill="none" xmlns="http://www.w3.org/2000/svg">
<path d="M19.5865 126.795C25.3915 130.701 27.6269 139.107 24.528 145.38C23.4476 147.565 21.3453 149.661 18.9374 149.299C15.7974 148.828 14.7781 144.939 13.8836 141.892C12.2085 136.174 7.62292 131.896 4.07925 127.319C0.46606 122.639 -3.87747 114.213 6.37581 118.005C11.185 119.785 15.3728 123.957 19.5865 126.795Z" fill="#D9F3FA"/>
<path d="M264.255 90.928C260.899 106.881 255.183 122.225 249.49 137.496C256.944 126.356 262.575 114.003 266.171 101.092C268.014 94.4901 275.245 71.6661 268.46 66.9105C264.095 71.6326 265.532 84.8566 264.255 90.928Z" fill="#D9F3FA"/>
<path d="M119.362 6.7602C124.403 7.71678 129.53 8.14792 134.661 8.04668C137.987 7.98052 141.542 7.60194 144.11 5.48545C144.612 5.07254 145.101 4.42847 144.846 3.83213C144.622 3.31034 143.966 3.16209 143.401 3.10095C137.985 2.53477 132.607 4.09764 127.228 4.95361C121.849 5.80959 115.901 5.8322 111.482 2.64532C114.79 3.7467 115.94 6.11445 119.362 6.7602Z" fill="#D9F3FA"/>
<path d="M104.981 2.73406C104.671 4.45941 106.982 5.91255 108.49 5.01972C109.999 4.1269 110.014 1.62347 108.618 0.563139C107.221 -0.497195 104.985 0.0145452 104.011 1.47355" fill="#D9F3FA"/>
<path d="M257.234 106.747C256.103 110.946 254.761 115.086 253.214 119.151C252.803 120.226 252.376 121.296 251.932 122.36C251.393 123.653 250.829 124.935 250.242 126.205C248.865 129.194 247.331 132.107 245.646 134.934C244.934 136.123 244.196 137.286 243.431 138.424C243.184 138.791 242.933 139.156 242.677 139.519C241.275 141.507 239.74 143.396 238.081 145.174C237.132 146.191 236.141 147.169 235.111 148.096C233.662 149.405 232.126 150.615 230.514 151.717C229.55 152.374 228.559 152.986 227.543 153.552C226.065 154.377 224.529 155.093 222.947 155.695C221.975 156.063 220.984 156.386 219.976 156.661C219.566 156.773 219.152 156.877 218.736 156.972C217.628 157.226 216.508 157.424 215.38 157.565C214.953 157.621 214.527 157.667 214.1 157.704C213.537 157.755 212.974 157.793 212.409 157.818C210.538 157.899 208.664 157.86 206.798 157.699C203.663 157.439 200.528 156.879 197.413 156.153C190.484 154.538 183.644 152.098 177.075 150.281C176.319 150.073 175.565 149.86 174.813 149.642C174.013 149.414 173.213 149.182 172.414 148.945C165.981 147.05 159.608 144.962 153.208 142.957C149.588 141.823 145.96 140.715 142.309 139.684C140.223 139.095 138.129 138.534 136.027 138.002C134.218 137.547 132.411 137.069 130.607 136.57C128.102 135.882 125.601 135.162 123.103 134.436C114.741 132.007 106.411 129.495 98.1012 127.804C94.9705 127.168 91.8431 126.648 88.7207 126.297C79.8988 125.292 71.0945 125.605 62.2918 128.307C57.5178 129.774 52.547 130.31 47.6054 130.024C43.5377 129.781 39.5185 129.014 35.6477 127.74C31.7296 126.457 27.985 124.694 24.4991 122.493C20.0433 119.686 16.0332 116.168 12.729 112.082C4.95573 102.469 1.39698 91.083 1.1876 79.5013C1.15075 77.4128 1.2198 75.3238 1.39447 73.2423C1.61378 70.624 1.99023 68.0212 2.52181 65.4481C2.95399 63.3442 3.48444 61.2581 4.11316 59.1899C4.92118 56.5382 5.8815 53.9352 6.9893 51.394C7.91675 49.2616 8.9447 47.1758 10.0732 45.1367C11.5663 42.4358 13.2291 39.8322 15.0516 37.3416C15.4871 36.747 15.9318 36.159 16.3858 35.5777C17.6019 34.0199 18.8685 32.5218 20.1857 31.0834C21.5705 29.5697 23.0069 28.1227 24.4949 26.7424C27.6667 23.7971 31.0834 21.1272 34.708 18.7614C35.3328 18.3516 35.9632 17.9524 36.5992 17.5637C38.4518 16.428 40.3469 15.3719 42.2845 14.3953C43.2655 13.8994 44.2555 13.4248 45.2544 12.9714C46.7665 12.2847 48.2986 11.6445 49.8509 11.0509C50.833 10.674 51.8233 10.3167 52.8217 9.97888C54.3393 9.46295 55.8715 8.99141 57.4181 8.56426C58.4031 8.2901 59.3934 8.03493 60.3889 7.79874C61.911 7.43636 63.4429 7.11474 64.9846 6.83388C65.9718 6.65465 66.9626 6.49244 67.957 6.34727C69.4825 6.12392 71.0144 5.94134 72.5527 5.79951C73.5398 5.70682 74.5301 5.63116 75.5234 5.57254C77.0522 5.48208 78.5841 5.43071 80.1191 5.41843C81.1091 5.41061 82.0996 5.41954 83.0907 5.44523C84.9618 5.49213 86.8323 5.59766 88.7023 5.76182C92.5423 6.09789 96.357 6.67865 100.123 7.50057C110.365 9.73432 120.451 11.3969 130.592 12.0501C132.003 12.1417 133.415 12.2129 134.829 12.2637C137.82 12.372 140.82 12.3829 143.829 12.2964C144.749 12.2696 145.67 12.2324 146.593 12.185C148.786 12.0733 150.986 11.9038 153.195 11.6766C153.994 11.5956 154.793 11.5052 155.593 11.4052C156.513 11.2936 157.435 11.169 158.357 11.0317C159.083 10.9256 159.81 10.8125 160.539 10.6925C162.823 10.3156 165.095 9.90015 167.357 9.47216C169.043 9.15306 170.724 8.82558 172.4 8.50228C173.202 8.34706 174.002 8.19323 174.8 8.04079C182.346 6.60272 189.836 5.31625 197.403 5.1144C200.536 5.02046 203.671 5.14247 206.788 5.47957C208.649 5.68477 210.52 5.97791 212.399 6.37156C213.386 6.5776 214.376 6.81211 215.37 7.0751C215.755 7.17728 216.141 7.28393 216.527 7.39504C217.681 7.73006 218.827 8.093 219.965 8.48386C220.964 8.8306 221.954 9.20108 222.937 9.59528C224.494 10.2212 226.026 10.9047 227.533 11.6456C228.538 12.1403 229.528 12.6604 230.504 13.206C232.078 14.0854 233.61 15.0293 235.101 16.0377C236.114 16.7228 237.104 17.4378 238.071 18.1827C239.671 19.4129 241.206 20.7269 242.667 22.1192C243.699 23.0991 244.689 24.1176 245.638 25.1745C247.313 27.034 248.849 29.0137 250.235 31.0977C250.535 31.55 250.828 32.0073 251.113 32.4696C251.864 33.6857 252.562 34.937 253.207 36.2235C254.322 38.4404 255.258 40.7426 256.007 43.1081C262.449 63.6013 262.835 86.0166 257.234 106.747Z" fill="#F5FDFF"/>
<path d="M257.234 106.747C256.103 110.946 254.761 115.086 253.214 119.151C252.803 120.226 252.376 121.296 251.932 122.36C251.393 123.653 250.83 124.935 250.242 126.205C248.866 129.194 247.331 132.107 245.646 134.934C244.934 136.123 244.196 137.286 243.431 138.424C243.185 138.791 242.933 139.156 242.678 139.519C241.276 141.507 239.74 143.396 238.081 145.174C237.132 146.191 236.141 147.169 235.111 148.096C233.662 149.405 232.127 150.615 230.515 151.717C229.55 152.374 228.559 152.986 227.543 153.552C226.065 154.377 224.529 155.093 222.947 155.695C221.975 156.063 220.984 156.386 219.976 156.661C219.566 156.773 219.152 156.877 218.736 156.972C217.628 157.226 216.508 157.424 215.38 157.565C214.953 157.621 214.527 157.667 214.1 157.704C213.537 157.755 212.974 157.793 212.409 157.818C210.538 157.899 208.664 157.86 206.798 157.699V5.47705C208.66 5.68225 210.53 5.97539 212.409 6.36904C213.396 6.57508 214.386 6.80959 215.38 7.07258C215.765 7.17476 216.151 7.28141 216.537 7.39253C217.691 7.72755 218.837 8.09048 219.976 8.48134C220.974 8.82809 221.965 9.19856 222.947 9.59277C224.505 10.2187 226.036 10.9021 227.543 11.6431C228.548 12.1378 229.539 12.6579 230.515 13.2034C232.088 14.0829 233.62 15.0268 235.111 16.0352C236.124 16.7203 237.114 17.4353 238.081 18.1802C239.682 19.4103 241.216 20.7243 242.678 22.1166C243.709 23.0966 244.699 24.115 245.648 25.172C247.323 27.0315 248.859 29.0112 250.245 31.0952C250.546 31.5474 250.839 32.0048 251.123 32.4671C251.874 33.6832 252.572 34.9345 253.217 36.221C254.329 38.439 255.261 40.742 256.007 43.1081C262.45 63.6013 262.836 86.0166 257.234 106.747Z" fill="#CDEFF8"/>
<path d="M253.215 36.2218V119.151C252.804 120.226 252.377 121.296 251.934 122.359C251.395 123.653 250.831 124.935 250.244 126.205V31.0952C250.545 31.5475 250.838 32.0048 251.122 32.4671C251.873 33.6838 252.571 34.9354 253.215 36.2218Z" fill="#A8E0EE"/>
<path d="M245.648 25.172V134.933C244.936 136.123 244.197 137.286 243.433 138.424C243.186 138.791 242.935 139.156 242.679 139.519V22.1166C243.709 23.0965 244.698 24.115 245.648 25.172Z" fill="#A8E0EE"/>
<path d="M238.084 18.1835V145.174C237.135 146.191 236.144 147.169 235.114 148.096V16.0386C236.124 16.7237 237.114 17.4387 238.084 18.1835Z" fill="#A8E0EE"/>
<path d="M230.514 13.2068V151.717C229.549 152.374 228.559 152.986 227.542 153.552V11.6464C228.547 12.1417 229.538 12.6618 230.514 13.2068Z" fill="#A8E0EE"/>
<path d="M222.947 9.59599V155.695C221.974 156.063 220.983 156.385 219.975 156.661V8.48456C220.973 8.8313 221.964 9.20178 222.947 9.59599Z" fill="#A8E0EE"/>
<path d="M215.379 7.07255V157.565C214.953 157.621 214.526 157.667 214.099 157.704C213.536 157.755 212.973 157.793 212.408 157.818V6.36566C213.395 6.57393 214.385 6.80956 215.379 7.07255Z" fill="#A8E0EE"/>
<path d="M142.303 29.3288V139.683C140.217 139.094 138.124 138.533 136.022 138.002C134.213 137.546 132.406 137.069 130.601 136.569C128.097 135.881 125.596 135.162 123.098 134.435C114.735 132.006 106.406 129.494 98.0958 127.804V29.3288H142.303Z" fill="#CEEAF1"/>
<path d="M111.328 40.8559H102.327V49.6435H111.328V40.8559Z" fill="#9AB5A9"/>
<path d="M123.094 40.8559H114.093V49.6435H123.094V40.8559Z" fill="#9AB5A9"/>
<path d="M134.861 40.8559H125.86V46.7104H134.861V40.8559Z" fill="white" stroke="black" stroke-width="4" stroke-miterlimit="10"/>
<path d="M111.328 60.5894H102.327V69.377H111.328V60.5894Z" fill="#9AB5A9"/>
<path d="M123.094 60.5894H114.093V69.377H123.094V60.5894Z" fill="#9AB5A9"/>
<path d="M134.861 54.0031H125.86V59.8575H134.861V54.0031Z" fill="white" stroke="black" stroke-width="4" stroke-miterlimit="10"/>
<path d="M111.328 80.3221H102.327V89.1097H111.328V80.3221Z" fill="#9AB5A9"/>
<path d="M123.094 80.3221H114.093V89.1097H123.094V80.3221Z" fill="#9AB5A9"/>
<path d="M134.861 67.1491H125.86V73.0036H134.861V67.1491Z" fill="white" stroke="black" stroke-width="4" stroke-miterlimit="10"/>
<path d="M111.328 100.055H102.327V108.843H111.328V100.055Z" fill="#9AB5A9"/>
<path d="M123.094 100.055H114.093V108.843H123.094V100.055Z" fill="#9AB5A9"/>
<path d="M134.861 80.2953H125.86V86.1498H134.861V80.2953Z" fill="white" stroke="black" stroke-width="4" stroke-miterlimit="10"/>
<path d="M111.328 119.788H102.327V128.576H111.328V119.788Z" fill="#9AB5A9"/>
<path d="M123.094 119.788H114.093V128.576H123.094V119.788Z" fill="#9AB5A9"/>
<path d="M134.861 93.4416H125.86V99.2961H134.861V93.4416Z" fill="white" stroke="black" stroke-width="4" stroke-miterlimit="10"/>
<path d="M142.302 29.3288V139.683C140.216 139.094 138.122 138.533 136.021 138.002C134.211 137.546 132.405 137.069 130.6 136.569C128.096 135.881 125.595 135.162 123.096 134.435V29.3288H142.302Z" fill="#87D3E5"/>
<path d="M47.5929 18.7614V130.022C43.5295 129.779 39.5146 129.012 35.6478 127.74C31.7296 126.457 27.9851 124.694 24.4991 122.493C20.0434 119.686 16.0332 116.168 12.729 112.082C4.95574 102.469 1.39699 91.0829 1.1876 79.5013C1.15075 77.4128 1.2198 75.3238 1.39448 73.2423C1.61378 70.624 1.99023 68.0212 2.52181 65.4481C2.95399 63.3442 3.48444 61.2581 4.11316 59.1899C4.92119 56.5381 5.8815 53.9352 6.98931 51.394C7.91676 49.2616 8.94471 47.1758 10.0732 45.1367C11.5663 42.4358 13.2291 39.8322 15.0516 37.3416C15.4871 36.7469 15.9318 36.159 16.3858 35.5777C17.6019 34.0199 18.8686 32.5218 20.1858 31.0834C21.5705 29.5697 23.0069 28.1227 24.495 26.7424C27.6667 23.7971 31.0834 21.1272 34.708 18.7614H47.5896H47.5929Z" fill="#E2F3F7"/>
<path d="M24.4986 31.0818V37.3399H15.0552C15.4908 36.7452 15.9355 36.1573 16.3895 35.576C17.6056 34.0182 18.8722 32.5201 20.1894 31.0818H24.4986Z" fill="#87D3E6"/>
<path d="M38.6453 31.0818H27.8224V37.3399H38.6453V31.0818Z" fill="white" stroke="black" stroke-width="4" stroke-miterlimit="10"/>
<path d="M10.3539 45.1349V51.3923H6.99274C7.9202 49.2599 8.94817 47.1741 10.0767 45.1349H10.3539Z" fill="#87D3E6"/>
<path d="M24.4985 45.1349H13.6757V51.3932H24.4985V45.1349Z" fill="#87D3E6"/>
<path d="M38.6453 45.1349H27.8224V51.3932H38.6453V45.1349Z" fill="white" stroke="black" stroke-width="4" stroke-miterlimit="10"/>
<path d="M10.3537 59.1882V65.4464H2.52179C2.95397 63.3425 3.48441 61.2564 4.11313 59.1882H10.3537Z" fill="#87D3E6"/>
<path d="M24.4985 59.1882H13.6757V65.4464H24.4985V59.1882Z" fill="#87D3E6"/>
<path d="M38.6453 59.1882H27.8224V65.4464H38.6453V59.1882Z" fill="white" stroke="black" stroke-width="4" stroke-miterlimit="10"/>
<path d="M10.3537 73.2407V79.4997H1.1876C1.15075 77.4112 1.2198 75.3222 1.39447 73.2407H10.3537Z" fill="#87D3E6"/>
<path d="M24.4985 73.2407H13.6757V79.4988H24.4985V73.2407Z" fill="#87D3E5"/>
<path d="M38.6453 73.2407H27.8224V79.4988H38.6453V73.2407Z" fill="white" stroke="black" stroke-width="4" stroke-miterlimit="10"/>
<path d="M24.4985 87.2939H13.6757V93.552H24.4985V87.2939Z" fill="#87D3E6"/>
<path d="M38.6453 87.2939H27.8224V93.552H38.6453V87.2939Z" fill="white" stroke="black" stroke-width="4" stroke-miterlimit="10"/>
<path d="M47.5928 18.7614V130.022C43.5297 129.779 39.515 129.012 35.6485 127.74C31.7304 126.457 27.9858 124.694 24.4999 122.493V26.7407C27.6704 23.7962 31.0856 21.1268 34.7088 18.7614H47.5928Z" fill="#A8E0EE"/>
<path d="M88.7085 5.75927V126.293C79.8866 125.288 71.0823 125.601 62.2797 128.303C57.5057 129.77 52.5348 130.305 47.5933 130.02C43.53 129.778 39.515 129.011 35.6481 127.74L35.9446 93.552L35.9999 87.2939L36.0669 79.4996L36.1213 73.2406L36.1892 65.4464L36.2436 59.1882L36.3115 51.3932L36.3651 45.135L36.4329 37.3399L36.4882 31.0817L36.5946 18.7614L36.6046 17.5637C38.4573 16.428 40.3524 15.3718 42.2899 14.3952C43.271 13.8994 44.2609 13.4248 45.2598 12.9714C46.7719 12.2846 48.3041 11.6444 49.8563 11.0509C50.8385 10.674 51.8287 10.3167 52.8271 9.97884C54.3447 9.46291 55.8769 8.99137 57.4236 8.56422C58.4085 8.29006 59.3988 8.03489 60.3944 7.7987C61.9165 7.43632 63.4483 7.1147 64.99 6.83384C65.9772 6.65461 66.968 6.4924 67.9625 6.34723C69.4879 6.12388 71.0198 5.94129 72.5581 5.79947C73.5453 5.70678 74.5355 5.63112 75.5289 5.57249C77.0577 5.48204 78.5896 5.43067 80.1245 5.41839C81.1145 5.41057 82.105 5.4195 83.0961 5.44519C84.9661 5.49042 86.8369 5.59511 88.7085 5.75927Z" fill="#F3F7F7"/>
<path d="M45.2597 12.9689V117.79H42.2897V14.3927C43.2708 13.8991 44.2608 13.4245 45.2597 12.9689Z" fill="#CAE3E9"/>
<path d="M52.8274 9.97638V117.79H49.8566V11.0484C50.8388 10.6715 51.8291 10.3142 52.8274 9.97638Z" fill="#CAE3E9"/>
<path d="M60.394 7.7962V117.79H57.4241V8.56173C58.4085 8.28757 59.3984 8.03239 60.394 7.7962Z" fill="#CAE3E9"/>
<path d="M67.9619 6.34473V117.79H64.9894V6.83134C65.9761 6.65211 66.9669 6.4899 67.9619 6.34473Z" fill="#CAE3E9"/>
<path d="M75.5292 5.57007V117.79H72.5584V5.79704C73.5462 5.70435 74.5364 5.6287 75.5292 5.57007Z" fill="#CAE3E9"/>
<path d="M83.0957 5.44441V117.79H80.1217V5.41593C81.1133 5.40867 82.1047 5.41817 83.0957 5.44441Z" fill="#CAE3E9"/>
<path d="M174.808 8.04077V149.642C174.008 149.414 173.208 149.182 172.409 148.945C165.976 147.05 159.603 144.962 153.203 142.957C149.583 141.823 145.955 140.715 142.304 139.684C140.218 139.095 138.124 138.534 136.022 138.002C134.213 137.547 132.406 137.069 130.602 136.57V12.0476C132.013 12.1392 133.425 12.2104 134.838 12.2612C137.829 12.3695 140.829 12.3804 143.838 12.2938C144.758 12.267 145.68 12.2299 146.602 12.1825C148.795 12.0708 150.996 11.9013 153.205 11.6741C154.003 11.5931 154.802 11.5026 155.602 11.4027C156.523 11.291 157.444 11.1665 158.366 11.0291C159.092 10.9231 159.819 10.81 160.548 10.6899C162.832 10.313 165.104 9.89762 167.367 9.46963C169.053 9.15052 170.734 8.82304 172.41 8.49975C173.211 8.34508 174.01 8.19209 174.808 8.04077Z" fill="#A8E0EE"/>
<path d="M143.835 23.5472H134.834V31.6128H143.835V23.5472Z" fill="#F3F5F4"/>
<path d="M155.601 23.5472H146.6V31.6128H155.601V23.5472Z" fill="#F3F5F4"/>
<path d="M167.366 23.5472H158.365V31.6128H167.366V23.5472Z" fill="white" stroke="black" stroke-width="4" stroke-miterlimit="10"/>
<path d="M143.835 41.6584H134.834V49.724H143.835V41.6584Z" fill="#F3F5F4"/>
<path d="M155.601 41.6584H146.6V49.724H155.601V41.6584Z" fill="#F3F5F4"/>
<path d="M167.366 41.6584H158.365V49.724H167.366V41.6584Z" fill="white" stroke="black" stroke-width="4" stroke-miterlimit="10"/>
<path d="M143.835 59.7703H134.834V67.8359H143.835V59.7703Z" fill="#F3F5F4"/>
<path d="M155.601 59.7703H146.6V67.8359H155.601V59.7703Z" fill="#F3F5F4"/>
<path d="M167.366 59.7703H158.365V67.8359H167.366V59.7703Z" fill="white" stroke="black" stroke-width="4" stroke-miterlimit="10"/>
<path d="M197.411 5.10938V156.153C190.482 154.538 183.642 152.098 177.073 150.281C176.317 150.073 175.563 149.86 174.812 149.642C174.011 149.414 173.211 149.182 172.412 148.945C165.98 147.05 159.606 144.962 153.206 142.957V11.6741C154.005 11.5931 154.804 11.5027 155.604 11.4027C156.524 11.291 157.446 11.1665 158.368 11.0292C159.094 10.9231 159.821 10.81 160.55 10.69C162.834 10.3131 165.106 9.89764 167.368 9.46966C169.054 9.15055 170.735 8.82307 172.411 8.49978C173.213 8.34455 174.013 8.19072 174.811 8.03828C182.355 6.60021 189.845 5.31374 197.411 5.10938Z" fill="#CEEAF1"/>
<path d="M184.406 15.4136L193.406 15.4136V9.55917H184.406V15.4136Z" fill="#87D3E5"/>
<path d="M172.639 15.4136L181.64 15.4136V9.55917H172.639V15.4136Z" fill="#87D3E5"/>
<path d="M184.406 28.5608H193.406V22.7063H184.406V28.5608Z" fill="#87D3E5"/>
<path d="M172.639 28.5608H181.64V22.7063H172.639V28.5608Z" fill="#87D3E5"/>
<path d="M184.406 41.7078H193.406V35.8533H184.406V41.7078Z" fill="#9AB5A9"/>
<path d="M172.639 41.7078H181.64V35.8533H172.639V41.7078Z" fill="#9AB5A9"/>
<path d="M184.406 54.854H193.406V48.9994H184.406V54.854Z" fill="#9AB5A9"/>
<path d="M172.639 54.854H181.64V48.9994H172.639V54.854Z" fill="#9AB5A9"/>
<path d="M184.406 67.9993H193.406V62.1448H184.406V67.9993Z" fill="#9AB5A9"/>
<path d="M172.639 67.9993H181.64V62.1448H172.639V67.9993Z" fill="#9AB5A9"/>
<path d="M172.409 8.49976V148.945C165.976 147.05 159.602 144.962 153.203 142.957V11.6741C154.001 11.5931 154.801 11.5026 155.601 11.4027C156.521 11.291 157.442 11.1665 158.365 11.0292C159.09 10.9231 159.818 10.81 160.546 10.6899C162.83 10.313 165.103 9.89762 167.365 9.46964C169.052 9.15053 170.733 8.82305 172.409 8.49976Z" fill="#CEEAF1"/>
<path d="M133.22 190C194.666 190 244.477 179.833 244.477 167.292C244.477 154.75 194.666 144.583 133.22 144.583C71.7751 144.583 21.9637 154.75 21.9637 167.292C21.9637 179.833 71.7751 190 133.22 190Z" fill="#DCEEF3"/>
<path d="M225.13 39.675V156.33C225.13 156.873 224.914 157.394 224.53 157.778C224.145 158.163 223.624 158.378 223.081 158.378H41.2123C40.669 158.378 40.1479 158.163 39.7637 157.778C39.3795 157.394 39.1636 156.873 39.1636 156.33V39.675C39.1636 39.1317 39.3795 38.6106 39.7637 38.2264C40.1479 37.8422 40.669 37.6263 41.2123 37.6263H223.081C223.624 37.6263 224.145 37.8422 224.53 38.2264C224.914 38.6106 225.13 39.1317 225.13 39.675Z" fill="#F3F5F4"/>
<path d="M125.19 68.7907L114.554 64.6465L225.001 38.958L231.199 37.5166C231.045 36.9403 230.831 36.3821 230.558 35.8516L222.367 37.6263C192.084 44.1927 145.994 54.1972 108.649 62.3449L97.228 57.8967L160.273 37.628H152.311C133.131 43.4842 112.039 49.9283 92.2847 55.9703L45.1843 37.628H41.2143C40.8476 37.627 40.4873 37.7245 40.1711 37.9102C39.855 38.096 39.5945 38.3633 39.4169 38.6842L87.5576 57.4176L92.6013 59.3825L103.245 63.5242L109.275 65.8693L118.636 69.511C97.8218 71.8151 77.0279 74.1242 59.4838 76.0866L39.1656 66.5461V70.6752L52.9852 76.8169C48.0278 77.3722 43.3944 77.8932 39.1656 78.3714V82.467L59.8615 79.8757L87.0157 91.9473C67.5226 93.774 50.4407 95.3921 39.1656 96.4935V102.014L50.857 100.913L80.6059 129.318L39.1656 137.077V149.201L191.717 113.187L192.245 113.446L193.932 112.664L225.132 105.294V102.278L192.756 108.337L178.232 100.79L175.056 99.1393L158.909 90.7487L225.132 84.519V79.1654C200.015 81.4729 140.028 86.9932 92.237 91.4657L65.9446 79.1194L225.133 59.1773V58.0047L224.698 57.8305C224.698 57.8305 175.892 63.1816 125.19 68.7907ZM184.866 109.785L87.3583 128.036L59.8163 100.045L97.774 96.4734L115.565 108.604L119.183 111.071L128.427 117.374L133.795 115.247L126.341 109.821L169.604 102.265L184.866 109.785ZM148.207 91.732L166.093 100.448C152.572 102.581 137.825 104.908 123.026 107.248L106.826 95.5839L148.207 91.732Z" fill="#92C6D4"/>
<path d="M32.8926 81.833V127.869L39.1633 122.174V76.2491L32.8926 81.833ZM231.208 37.5041C230.731 35.7156 229.677 34.1346 228.209 33.0067C226.742 31.8787 224.943 31.2668 223.092 31.266L216.628 37.6263H223.078C223.347 37.6261 223.613 37.679 223.862 37.7818C224.111 37.8847 224.336 38.0356 224.527 38.2259C224.717 38.4162 224.868 38.6421 224.971 38.8907C225.074 39.1394 225.127 39.4059 225.126 39.675V156.33C225.126 156.873 224.91 157.394 224.526 157.778C224.142 158.162 223.621 158.378 223.078 158.378H93.9165L87.5452 164.649H223.092C225.319 164.649 227.455 163.764 229.03 162.19C230.604 160.615 231.489 158.479 231.489 156.252V39.6649C231.49 38.9354 231.396 38.2089 231.208 37.5041ZM89.6827 31.266L82.5392 37.6263H132.228L139.229 31.266H89.6827Z" fill="#75C1D4"/>
<path d="M92.2387 94.141C90.1699 91.8796 87.4052 90.6233 84.4495 90.6023C78.3604 90.5521 73.3695 95.8396 73.3201 102.381C73.2857 106.968 78.6058 116.87 81.7994 122.392V126.219H84.2803L84.333 126.135L86.8331 122.07C90.0158 116.72 95.367 107.069 95.4005 102.548C95.4281 99.3841 94.3033 96.4024 92.2387 94.141ZM84.3774 97.5649H84.4092C86.8021 97.5825 88.7335 99.5809 88.7151 102.018C88.7112 103.188 88.2455 104.308 87.4194 105.136C87.0173 105.542 86.5378 105.864 86.0093 106.082C85.4808 106.3 84.914 106.41 84.3422 106.405C81.9502 106.388 80.0188 104.39 80.0372 101.953C80.0556 99.5156 81.9996 97.5666 84.3774 97.5666V97.5649Z" fill="#CC0000"/>
<path d="M82.2569 90.8258C76.2592 90.7806 71.357 95.9742 71.3076 102.427C71.2582 108.879 81.9906 126.082 81.9906 126.082C81.9906 126.082 92.9809 109.042 93.0303 102.591C93.0798 96.1392 88.2555 90.8744 82.2569 90.8258ZM82.138 106.586C79.6429 106.568 77.6353 104.492 77.6546 101.953C77.6738 99.4132 79.7124 97.3687 82.2075 97.3871C84.7026 97.4056 86.7102 99.481 86.6909 102.021C86.6717 104.562 84.633 106.605 82.138 106.586Z" fill="#E83535"/>
<path d="M81.9877 126.417L81.8386 126.177C81.8118 126.135 79.1216 121.812 76.4724 116.757C72.9061 109.953 71.112 105.13 71.1279 102.425C71.1522 99.2592 72.3214 96.2909 74.4204 94.0664C76.5193 91.8419 79.3075 90.6216 82.2582 90.6467C85.2089 90.6718 87.9745 91.9256 90.0475 94.1845C92.1205 96.4434 93.2369 99.4259 93.2135 102.592C93.1925 105.298 91.3223 110.092 87.6538 116.842C84.9284 121.856 82.1728 126.139 82.1451 126.18L81.9877 126.417ZM82.1787 91.0043C79.3561 91.0043 76.6968 92.1769 74.6817 94.3126C72.6447 96.471 71.5098 99.353 71.4864 102.428C71.442 108.341 80.6953 123.632 81.9927 125.746C83.3219 123.652 92.8056 108.502 92.8508 102.589C92.8743 99.5138 91.7829 96.6151 89.7787 94.4265C87.7744 92.238 85.1059 91.0261 82.2557 91.0052H82.1787V91.0043ZM82.1719 106.766H82.1368C79.5462 106.747 77.4557 104.589 77.4749 101.952C77.4942 99.3153 79.6208 97.1888 82.2088 97.2089C84.7969 97.229 86.8899 99.3865 86.8698 102.023C86.8497 104.66 84.7458 106.765 82.1719 106.766ZM82.1719 97.5665C79.7941 97.5665 77.8502 99.5281 77.8317 101.954C77.8133 104.381 79.7447 106.393 82.1376 106.408C84.5288 106.422 86.4929 104.457 86.5097 102.02C86.5264 99.5825 84.5967 97.5808 82.2046 97.5665H82.1719Z" fill="#E83535"/>
<path d="M83.2811 134.013C84.8889 134.013 86.1924 132.71 86.1924 131.102C86.1924 129.494 84.8889 128.191 83.2811 128.191C81.6732 128.191 80.3698 129.494 80.3698 131.102C80.3698 132.71 81.6732 134.013 83.2811 134.013Z" fill="#E83535"/>
<path d="M228.273 102.557C228.038 102.557 227.812 102.464 227.645 102.297C227.479 102.131 227.385 101.905 227.385 101.669V82.2309C227.385 81.9952 227.479 81.7692 227.645 81.6025C227.812 81.4359 228.038 81.3422 228.273 81.3422C228.509 81.3422 228.735 81.4359 228.902 81.6025C229.068 81.7692 229.162 81.9952 229.162 82.2309V101.669C229.162 101.786 229.139 101.901 229.094 102.009C229.05 102.117 228.984 102.215 228.902 102.297C228.819 102.38 228.721 102.445 228.613 102.49C228.506 102.534 228.39 102.557 228.273 102.557Z" fill="#60723D"/>
<path d="M228.273 114.577C228.038 114.577 227.812 114.483 227.645 114.317C227.479 114.15 227.385 113.924 227.385 113.688V107.888C227.385 107.653 227.479 107.427 227.645 107.26C227.812 107.093 228.038 107 228.273 107C228.509 107 228.735 107.093 228.902 107.26C229.068 107.427 229.162 107.653 229.162 107.888V113.688C229.162 113.924 229.068 114.15 228.902 114.317C228.735 114.483 228.509 114.577 228.273 114.577Z" fill="#60723D"/>
<path d="M220.829 124.607H158.93V148.436H220.829V124.607Z" fill="#92C6D4"/>
<path d="M216.798 128.541H187.595V129.81H216.798V128.541Z" fill="white"/>
<path d="M216.798 131.676H187.595V132.946H216.798V131.676Z" fill="white"/>
<path d="M216.798 134.812H187.595V136.081H216.798V134.812Z" fill="white"/>
<path d="M216.798 137.946H187.595V139.216H216.798V137.946Z" fill="white"/>
<path d="M207.213 140.992H187.595V142.262H207.213V140.992Z" fill="white"/>
<path d="M162.407 134.096C162.568 134.111 162.729 134.113 162.891 134.104C163.217 134.104 163.538 134.026 163.827 133.877C164.118 133.719 164.335 133.453 164.432 133.136L164.417 133.129C164.221 133.31 163.934 133.409 163.51 133.409C162.701 133.409 161.945 132.872 161.945 131.866C161.945 130.883 162.754 130.083 163.872 130.083C165.247 130.083 165.829 131.118 165.829 132.214C165.829 133.219 165.519 133.96 164.96 134.459C164.457 134.912 163.758 135.139 162.889 135.154C162.728 135.158 162.566 135.153 162.405 135.139L162.407 134.096ZM163.328 131.775C163.328 132.123 163.501 132.456 163.909 132.456C164.174 132.456 164.333 132.342 164.412 132.221C164.454 132.124 164.473 132.017 164.465 131.911C164.472 131.526 164.321 131.065 163.867 131.065C163.563 131.065 163.322 131.345 163.33 131.775H163.328Z" fill="white"/>
<path d="M166.075 135.971C166.342 135.224 166.542 134.455 166.672 133.672L168.026 133.597C167.76 134.399 167.407 135.17 166.975 135.895L166.075 135.971Z" fill="white"/>
<path d="M168.544 135.046V134.204L169.227 133.607C170.227 132.745 170.735 132.232 170.742 131.733C170.742 131.377 170.508 131.12 170.007 131.12C169.598 131.12 169.227 131.325 168.954 131.521L168.583 130.546C168.961 130.266 169.583 130.032 170.28 130.032C171.424 130.032 172.106 130.651 172.106 131.623C172.106 132.409 171.545 133.047 170.961 133.521L170.477 133.898V133.913H172.182V135.05L168.544 135.046Z" fill="white"/>
<path d="M173.09 129.931H174.453V132.091H174.468C174.574 131.902 174.688 131.713 174.793 131.532L175.775 129.931H177.479L175.848 132.109L177.54 135.045H175.948L174.866 132.973L174.454 133.497V135.045H173.09V129.931Z" fill="white"/>
<path d="M182.257 133.23C182.234 132.65 182.226 131.974 182.226 131.181H182.195C182.038 131.851 181.827 132.605 181.662 133.166L181.159 134.933H180.099L179.68 133.174C179.545 132.625 179.395 131.874 179.274 131.182H179.251C179.22 131.898 179.198 132.651 179.175 133.231L179.091 135.047H177.839L178.151 130.046H180.004L180.331 131.392C180.473 131.949 180.621 132.619 180.725 133.228H180.747C180.889 132.619 181.052 131.912 181.201 131.386L181.58 130.046H183.387L183.639 135.047H182.318L182.257 133.23Z" fill="white"/>
<path d="M203.98 66.6047C203.965 66.5679 203.949 66.531 203.934 66.495C203.949 66.531 203.965 66.5679 203.98 66.6047Z" fill="white"/>
<path d="M203.934 66.495L203.906 66.4297L203.934 66.495Z" fill="white"/>
<path d="M203.905 66.4297C203.899 66.4155 203.893 66.4004 203.886 66.3853C203.893 66.4004 203.899 66.418 203.905 66.4297Z" fill="white"/>
<path d="M204.409 68.0328C204.409 68.0118 204.401 67.9909 204.398 67.97C204.398 67.9892 204.406 68.0085 204.409 68.0278V68.0328Z" fill="white"/>
<path d="M89.6827 31.266L82.5392 37.6263H41.212C40.6691 37.627 40.1487 37.8431 39.765 38.2273C39.3814 38.6114 39.1659 39.1321 39.1659 39.675V76.2491L32.8951 81.8331V39.6633C32.8951 37.4366 33.7795 35.3011 35.3538 33.7264C36.928 32.1517 39.0632 31.2667 41.2899 31.266H89.6827Z" fill="#88CADB"/>
<path opacity="0.62" d="M82.5391 37.6263L39.1656 76.2491V39.675C39.1656 39.1317 39.3815 38.6106 39.7657 38.2264C40.1499 37.8422 40.671 37.6263 41.2143 37.6263H82.5391Z" fill="white"/>
<path d="M93.9164 158.381L87.5452 164.652H41.2898C40.1871 164.652 39.0952 164.434 38.0764 164.012C37.0576 163.59 36.1318 162.972 35.3521 162.192C34.5723 161.412 33.9538 160.487 33.5318 159.468C33.1098 158.449 32.8926 157.357 32.8926 156.254V127.869L39.1633 122.173V156.33C39.1633 156.874 39.3791 157.395 39.7633 157.779C40.1475 158.163 40.6686 158.379 41.212 158.379L93.9164 158.381Z" fill="#88CADB"/>
<path d="M194.04 78.0505L197.866 78.3589L197.85 78.56L194.023 78.2515L194.04 78.0505Z" fill="#92C6D4"/>
<path d="M193.945 67.8869L193.879 67.6963L198.242 66.1785C198.232 65.7495 198.229 64.4745 198.229 64.4167L198.228 64.348L201.496 63.053L201.57 63.2405L198.43 64.4844C198.431 64.7829 198.436 65.9626 198.446 66.245L198.449 66.3197L193.945 67.8869Z" fill="#92C6D4"/>
<path d="M200.14 63.7899L201.293 72.9008L201.093 72.9261L199.94 63.8152L200.14 63.7899Z" fill="#92C6D4"/>
<path d="M202.722 72.7467L202.924 72.7454L202.954 77.4101L202.752 77.4114L202.722 72.7467Z" fill="#92C6D4"/>
<path d="M197.496 62.3718L197.57 62.5595L195.077 63.5423L195.003 63.3546L197.496 62.3718Z" fill="#92C6D4"/>
<path d="M194.007 78.7643L193.993 78.864L193.979 78.9641L193.91 78.9543L193.809 78.9402L193.057 78.8343L193.057 78.8344L193.049 78.6295L193.05 78.6294L193.822 78.7382L193.887 78.7474L193.923 78.7525L194.007 78.7643Z" fill="#92C6D4"/>
<path d="M194.104 75.6958L194.072 75.8952L194.008 75.8849L192.943 75.7144L192.94 75.7139L192.933 75.5083L192.935 75.5086L194.021 75.6826L194.104 75.6958Z" fill="#92C6D4"/>
<path d="M193.147 64.6652L193.069 64.6965L192.55 64.9023L192.536 64.9076L192.527 64.6505L192.541 64.6506L192.889 64.6589L193.06 64.6633L193.147 64.6652Z" fill="#92C6D4"/>
<path d="M193.184 64.7591L193.094 64.795L192.554 65.0092L192.554 65.0094L192.54 65.0145L192.532 64.8004L192.546 64.7954L192.889 64.6589L193.044 64.5977L193.11 64.5714L193.147 64.6652L193.184 64.7591Z" fill="#92C6D4"/>
<path d="M199.844 75.382L199.78 77.0044L199.511 83.8491L199.309 83.8567L199.572 77.1729L199.635 75.5674L198.382 75.4654L198.281 75.457L198.181 75.4489L194.26 75.129L194.26 75.129L194.208 75.1247L194.216 75.0242L194.225 74.9237L194.273 74.9277L198.197 75.2475L198.297 75.2557L198.398 75.264L199.844 75.382Z" fill="#92C6D4"/>
<path d="M198.105 80.2667L197.954 82.6445L197.395 82.5985L197.107 82.5747L196.342 82.5116L196.25 83.9711L196.047 83.9787L196.153 82.2933L197.184 82.3784L197.307 82.3887L197.766 82.4264L197.883 80.5723L197.904 80.2537L198.105 80.2667Z" fill="#92C6D4"/>
<path d="M198.137 78.4394L197.943 78.3845L197.941 78.3914C197.965 78.2485 198.27 74.31 198.386 72.8047L198.393 72.7127L205.063 72.6289L205.066 72.8307L198.58 72.9113C198.449 74.6202 198.16 78.3567 198.137 78.4394Z" fill="#92C6D4"/>
<path d="M206.497 74.548C206.521 74.4739 206.559 74.4054 206.61 74.3466C207.053 73.8639 207.208 75.2049 207.266 75.5289C207.359 76.043 207.392 76.5651 207.401 77.0863C207.405 77.3365 207.229 78.429 207.371 78.6048C206.901 78.0219 206.777 76.867 206.574 76.1521C206.423 75.6237 206.226 74.5956 206.675 74.163C206.779 74.0628 206.944 74.0101 207.072 74.0771C207.183 74.1351 207.236 74.2631 207.273 74.3831C207.526 75.2226 207.34 76.1316 207.462 77.0004C207.552 77.6334 207.804 78.2733 207.647 78.8927C207.59 78.852 207.544 78.7988 207.511 78.7372C207.478 78.6755 207.46 78.6072 207.458 78.5374" fill="#111111"/>
<path d="M198.72 75.0115C198.72 75.0115 199.636 75.205 200.605 76.784C200.605 76.784 200.64 73.6373 199.74 73.6709C199.74 73.6717 199.036 73.6536 198.72 75.0115Z" fill="#070208"/>
<path d="M185.048 84.5662C183.52 84.6233 182.218 82.9698 182.139 80.8728C182.061 78.7759 183.236 77.0297 184.764 76.9725C186.292 76.9154 187.594 78.569 187.673 80.6659C187.751 82.7628 186.576 84.509 185.048 84.5662Z" fill="#AF0C0C"/>
<path d="M187.589 80.6559C187.652 82.3408 187.068 83.7303 186.285 83.7596C185.501 83.7889 184.815 82.4469 184.752 80.762C184.689 79.0772 185.273 77.6875 186.056 77.6582C186.84 77.6289 187.526 78.9711 187.589 80.6559Z" fill="#AF0C0C"/>
<path d="M207.437 78.6853C207.554 81.8177 206.683 84.3931 205.491 84.4377C204.299 84.4822 203.237 81.9792 203.12 78.8467C203.003 75.7143 203.874 73.1389 205.067 73.0943C206.259 73.0497 207.32 75.553 207.437 78.6853Z" fill="#CC0000"/>
<path d="M207.037 78.8211C207.116 80.9168 206.799 82.6299 206.329 82.6474C205.86 82.665 205.416 80.9804 205.337 78.8847C205.259 76.789 205.576 75.0759 206.046 75.0583C206.515 75.0408 206.959 76.7254 207.037 78.8211Z" fill="#BB1010"/>
<path d="M206.988 78.9485C207.04 80.3535 206.828 81.5014 206.513 81.5131C206.198 81.5249 205.901 80.3955 205.848 78.9911C205.795 77.5867 206.008 76.4382 206.323 76.4265C206.637 76.4147 206.935 77.5437 206.988 78.9485Z" fill="#F3F5F4"/>
<path d="M172.496 86.5904C170.321 86.6717 168.468 84.3184 168.357 81.3342C168.245 78.3499 169.917 75.8648 172.092 75.7835C174.267 75.7022 176.12 78.0554 176.231 81.0397C176.343 84.0239 174.671 86.5091 172.496 86.5904Z" fill="#AF0C0C"/>
<path d="M175.612 81.2881C175.707 83.8162 174.723 85.9052 173.416 85.9541C172.108 86.003 170.971 83.9933 170.876 81.4652C170.782 78.9372 171.765 76.8484 173.073 76.7995C174.381 76.7506 175.518 78.7603 175.612 81.2881Z" fill="#CC0000"/>
<path d="M175.062 81.5825C175.126 83.2952 174.562 84.7072 173.803 84.7356C173.043 84.764 172.376 83.3987 172.311 81.6853C172.247 79.972 172.811 78.5607 173.571 78.5323C174.331 78.5039 174.998 79.8698 175.062 81.5825Z" fill="#CACCCF"/>
<path d="M201.452 80.0245C201.462 80.3114 201.458 80.5987 201.438 80.8851C201.433 80.9759 201.424 81.0594 201.418 81.1344C201.401 81.2986 201.379 81.46 201.353 81.6185C201.165 82.7561 200.732 83.7448 200.138 84.4481C199.57 85.1208 198.855 85.5314 198.065 85.5609C196.564 85.6171 195.225 84.2757 194.617 82.3238C194.414 81.6645 194.299 80.9812 194.275 80.2918C194.233 79.1572 194.426 78.0961 194.79 77.212C195.384 75.7701 196.433 74.8001 197.661 74.7542C197.861 74.7468 198.062 74.764 198.258 74.8056C198.421 74.8404 198.58 74.8906 198.733 74.9553C198.759 74.9664 198.785 74.9776 198.811 74.9897C199.135 75.1381 199.441 75.3523 199.723 75.6225C200.031 75.9169 200.308 76.2778 200.547 76.6915C200.586 76.759 200.624 76.8279 200.661 76.8982C200.661 76.899 200.661 76.8997 200.661 76.9005C201.118 77.7721 201.408 78.8498 201.452 80.0245Z" fill="#CC0000"/>
<path d="M200.902 80.0179C200.981 82.139 200.267 83.8879 199.307 83.9238C198.346 83.9598 197.503 82.2691 197.424 80.148C197.344 78.0269 198.059 76.278 199.019 76.2421C199.98 76.2062 200.823 77.8966 200.902 80.0179Z" fill="#BB1010"/>
<path d="M200.679 80.0172C200.742 81.7057 200.173 83.098 199.408 83.1266C198.643 83.1552 197.971 81.8093 197.908 80.1208C197.845 78.4323 198.414 77.0402 199.179 77.0116C199.944 76.983 200.616 78.3286 200.679 80.0172Z" fill="#F3F5F4"/>
<path d="M177.23 64.8405C177.301 64.7767 177.371 64.7138 177.44 64.6519C177.371 64.7141 177.301 64.7768 177.23 64.8405Z" fill="white"/>
<path d="M178.272 63.9273C178.355 63.8573 178.437 63.7889 178.516 63.7231C178.437 63.7891 178.355 63.8571 178.272 63.9273Z" fill="white"/>
<path d="M178.516 63.7231C178.6 63.6544 178.681 63.5881 178.76 63.5241C178.681 63.5882 178.6 63.6546 178.516 63.7231Z" fill="white"/>
<path d="M178.829 63.4691C178.896 63.4153 178.962 63.3638 179.026 63.3148C178.962 63.3642 178.897 63.4157 178.829 63.4691Z" fill="white"/>
<path d="M179.074 63.2782C179.184 63.1934 179.289 63.1161 179.388 63.0461C179.289 63.116 179.184 63.1934 179.074 63.2782Z" fill="white"/>
<path d="M179.388 63.0461C179.417 63.0258 179.445 63.0061 179.472 62.9879C179.445 63.0067 179.417 63.026 179.388 63.0461Z" fill="white"/>
<path d="M204.183 66.4128C204.168 66.3751 204.153 66.3377 204.138 66.3006C204.153 66.3377 204.168 66.3751 204.183 66.4128Z" fill="white"/>
<path d="M204.137 66.3006L204.109 66.2346L204.137 66.3006Z" fill="white"/>
<path d="M204.109 66.2346L204.09 66.1897L204.109 66.2346Z" fill="white"/>
<path d="M203.697 65.3851C203.832 65.6337 203.966 65.9041 204.09 66.1898C203.492 64.8117 202.651 63.7942 202.651 63.7942C202.635 63.7741 202.619 63.754 202.602 63.7339C202.619 63.754 202.635 63.7741 202.652 63.7942C202.652 63.7941 203.18 64.4339 203.697 65.3851Z" fill="white"/>
<path d="M197.321 61.1799C197.326 61.1797 197.341 61.1777 197.365 61.1762L197.324 61.1802L197.321 61.1799Z" fill="white"/>
<path d="M197.695 61.1659C197.537 61.1635 197.424 61.1701 197.365 61.175C197.422 61.1707 197.536 61.164 197.695 61.1659Z" fill="white"/>
<path d="M197.698 61.1658L197.739 61.1665L197.698 61.1658Z" fill="white"/>
<path d="M207.83 78.2659C207.765 78.6589 207.644 79.0146 207.448 79.3017C207.448 79.3017 207.456 78.7783 207.444 78.0687C207.419 76.4571 207.297 73.8837 206.768 74.2979C206.699 74.3733 206.638 74.4553 206.586 74.5428C206.461 74.7466 206.358 74.9632 206.279 75.189C206.126 75.6138 205.991 76.2047 205.966 76.992C205.964 77.0306 205.963 77.07 205.963 77.1095C205.959 77.3225 205.963 77.5495 205.978 77.7906C205.992 78.1517 205.986 78.5133 205.957 78.8735C205.941 79.077 205.917 79.2945 205.88 79.5109C205.809 79.926 205.691 80.3379 205.501 80.6455C205.348 80.8916 205.148 81.0709 204.886 81.1313L203.433 81.332L201.352 81.6189L201.343 81.6193C201.377 81.459 201.401 81.2969 201.416 81.1339C201.424 81.0584 201.431 80.9749 201.437 80.8846C201.522 79.5123 201.255 78.141 200.661 76.9009C200.661 76.9002 200.661 76.8994 200.661 76.8986C200.643 76.8606 200.624 76.8228 200.605 76.7846C200.605 76.7846 200.605 76.7827 200.605 76.7788C200.604 76.7581 200.6 76.6961 200.592 76.5997C200.544 75.9971 200.354 74.1145 199.837 73.7781C199.801 73.7533 199.759 73.7368 199.716 73.7297C199.549 73.7032 199.352 73.829 199.121 74.1793C199.044 74.2956 199.037 74.363 198.914 74.6958C198.912 74.7004 198.911 74.7052 198.909 74.71C198.878 74.794 198.846 74.8877 198.811 74.991C198.806 75.0054 198.801 75.0201 198.797 75.035C198.634 75.5272 198.498 76.0278 198.389 76.5345C198.308 76.9133 198.233 77.3294 198.174 77.7758C198.153 77.9393 198.134 78.1072 198.117 78.2784C198.038 79.083 198.029 79.893 198.09 80.6992L198.084 80.7236C198.075 80.771 198.048 80.8834 198.007 81.0303C197.998 81.0606 197.988 81.0931 197.978 81.1254L197.975 81.134C197.908 81.3502 197.807 81.6138 197.667 81.8449C197.608 81.947 197.537 82.0425 197.457 82.1298C197.457 82.1298 196.372 82.2089 194.617 82.3251L194.436 82.3371C194.048 82.3628 193.629 82.3898 193.184 82.4182L193.181 82.4184L192.78 82.4437L192.75 82.4448C191.17 82.5453 189.297 82.6568 187.298 82.7645L187.28 82.7651C186.609 82.801 185.925 82.8365 185.232 82.8705C184.395 82.9117 183.546 82.9511 182.697 82.9879C180.388 83.0873 178.077 83.165 175.989 83.1973C175.814 83.2001 175.64 83.2025 175.469 83.2045C175.284 83.2068 175.101 83.2085 174.92 83.2099C174.077 83.2166 173.28 83.2147 172.546 83.2024C172.035 83.1938 171.554 83.1801 171.11 83.1607C170.871 83.1502 170.643 83.138 170.426 83.1241C170.338 83.1183 170.251 83.1127 170.167 83.1063C170.095 83.1013 170.025 83.0959 169.956 83.0904C169.853 83.0819 169.752 83.073 169.655 83.0635C169.399 83.0385 169.167 83.0095 168.96 82.9781C168.96 82.9781 168.607 82.4585 168.394 81.8519C168.374 81.7949 168.356 81.7368 168.338 81.6784C168.278 81.4749 168.237 81.2681 168.235 81.0716C168.234 81.0427 168.236 81.0143 168.237 80.986C168.237 80.986 168.071 76.0683 169.237 74.0235C169.237 74.0235 169.208 73.6234 169.305 73.0728C169.36 72.7649 169.447 72.4637 169.566 72.1746L169.566 72.1727C169.688 71.8756 169.849 71.5962 170.046 71.342C170.155 71.2014 170.276 71.0699 170.407 70.949C170.426 70.9315 170.445 70.9144 170.464 70.8974L170.493 70.8718C170.522 70.8463 170.553 70.8211 170.583 70.7966L170.614 70.7721C170.625 70.764 170.635 70.7558 170.646 70.7479L170.678 70.7237C170.701 70.7065 170.725 70.689 170.749 70.672C170.769 70.6578 170.789 70.6438 170.81 70.6298L170.844 70.6078C170.866 70.5931 170.889 70.5785 170.912 70.5638L170.915 70.562L170.945 70.5437L170.985 70.519C170.993 70.5146 171 70.5104 171.008 70.5064C171.224 70.382 171.452 70.2791 171.688 70.1991C171.688 70.1991 172.265 69.61 173.122 68.7598L173.146 68.7364C173.167 68.7149 173.189 68.6933 173.211 68.6718C173.24 68.6434 173.269 68.6146 173.298 68.5857C173.471 68.4136 173.654 68.2334 173.844 68.0476C173.863 68.0291 173.882 68.0106 173.901 67.9919C173.942 67.9513 173.984 67.9102 174.027 67.8687L174.195 67.7043C174.377 67.526 174.565 67.3434 174.756 67.1583L174.87 67.0487C174.912 67.008 174.954 66.9673 174.997 66.927L175.121 66.8068C175.235 66.698 175.35 66.5887 175.465 66.4788L175.567 66.3813C175.695 66.2598 175.824 66.1382 175.953 66.0168C175.971 66 175.989 65.9827 176.007 65.9655C176.032 65.9422 176.056 65.919 176.081 65.896C176.099 65.879 176.117 65.8624 176.135 65.8455C176.208 65.7771 176.281 65.709 176.354 65.6413L176.452 65.5504C176.649 65.3673 176.846 65.187 177.039 65.0108L177.101 64.9538L177.226 64.8411L177.317 64.76L177.332 64.7464L177.349 64.7307L177.436 64.6529C177.58 64.5232 177.722 64.3981 177.861 64.2775L177.951 64.2004L178.009 64.1498L178.066 64.1002C178.135 64.0418 178.202 63.9842 178.268 63.9271C178.28 63.9175 178.291 63.9075 178.303 63.8978C178.314 63.8881 178.321 63.8828 178.33 63.875C178.37 63.8406 178.412 63.8063 178.452 63.773L178.512 63.7231L178.574 63.6719L178.636 63.6217C178.676 63.5886 178.716 63.5566 178.756 63.5241L178.775 63.5095L178.825 63.4689L178.876 63.4291L178.974 63.3519L179.023 63.3145C179.038 63.3023 179.054 63.2899 179.07 63.2781L179.111 63.2468L179.152 63.2161L179.192 63.1858C179.205 63.1762 179.218 63.1662 179.232 63.1565C179.258 63.1371 179.284 63.1181 179.31 63.0998C179.336 63.0814 179.36 63.0633 179.385 63.0458C179.391 63.0421 179.396 63.0382 179.402 63.0342C179.424 63.0183 179.447 63.0029 179.469 62.9878C179.741 62.8002 179.963 62.6764 180.116 62.6348C180.116 62.6348 187.907 61.3574 197.315 61.1793L197.32 61.1791L197.346 61.1765C197.351 61.1763 197.356 61.1761 197.362 61.1759L197.385 61.175L197.412 61.174L197.414 61.174C197.451 61.1726 197.497 61.1696 197.554 61.1687C197.569 61.1682 197.585 61.1676 197.601 61.1684L197.622 61.1676L197.661 61.1678L197.691 61.1683C197.703 61.1679 197.716 61.1687 197.728 61.169C198.599 61.1903 200.714 61.4937 202.598 63.7365L202.623 63.7661C202.631 63.7759 202.639 63.7862 202.647 63.796L202.653 63.8026C202.656 63.8064 202.659 63.8103 202.662 63.8143C202.665 63.8183 202.672 63.8257 202.677 63.8316C202.681 63.8374 202.682 63.8388 202.685 63.8424C202.688 63.8461 202.695 63.8537 202.699 63.8595C202.7 63.86 202.7 63.8606 202.7 63.8613C203.628 65.0069 204.341 66.2775 204.94 67.6027C204.98 67.6908 205.019 67.779 205.058 67.8674C205.097 67.9559 205.137 68.0445 205.177 68.1334C205.202 68.1903 205.225 68.2474 205.249 68.3043C205.319 68.471 205.388 68.6385 205.454 68.8068C205.581 69.1226 205.703 69.4403 205.821 69.7599C206.286 71.0143 206.701 72.2863 207.145 73.526C207.144 73.5264 208.151 76.3417 207.83 78.2659Z" fill="#E83535"/>
<path d="M204.456 67.2091C204.51 67.4036 204.557 67.6017 204.592 67.8016C204.556 67.6017 204.51 67.4036 204.456 67.2091Z" fill="white"/>
<path d="M204.603 67.8649C204.6 67.8444 204.596 67.8224 204.592 67.801C204.596 67.8215 204.599 67.8402 204.603 67.8598C204.603 67.8615 204.603 67.8632 204.603 67.8649Z" fill="white"/>
<path d="M173.1 68.7383L172.454 69.3598L172.017 69.2312L172.103 68.6524C172.905 67.206 174.192 67.6352 174.192 67.6352L173.1 68.7383Z" fill="#AF0C0C"/>
<path d="M200.829 62.3386C200.829 62.3386 197.914 60.3467 198.055 62.6676C198.055 62.6676 198.78 68.6868 199.807 69.6231C199.807 69.6231 203.979 68.641 204.57 67.9348C204.784 67.68 202.679 63.3058 200.829 62.3386Z" fill="#CC0000"/>
<path d="M202.184 67.4635C202.184 67.4635 202.05 67.5544 201.845 67.6697C201.361 67.9419 200.474 68.3484 199.985 68.0056C199.925 67.9607 199.871 67.9075 199.826 67.8473C199.693 67.6802 199.564 67.4297 199.443 67.1384C199.443 67.1361 199.441 67.1339 199.44 67.1315C199.435 67.1202 199.43 67.1086 199.426 67.097C199.332 66.8696 199.244 66.6188 199.162 66.3643C199.095 66.1572 199.033 65.9477 198.977 65.7461C198.902 65.4797 198.837 65.2254 198.784 65.0095C198.737 64.8183 198.699 64.6563 198.674 64.5411C198.646 64.4202 198.632 64.3503 198.632 64.3503C198.591 64.1392 198.561 63.9261 198.543 63.7118C198.493 63.1368 198.513 62.362 198.958 62.2285C198.958 62.2285 199.324 62.144 199.524 62.1786C199.574 62.1873 199.614 62.2034 199.634 62.2304C199.775 62.414 199.923 62.6188 200.075 62.8444C200.15 62.9558 200.226 63.0721 200.303 63.1933C200.419 63.3753 200.536 63.5699 200.653 63.7745C200.782 63.9987 200.909 64.2355 201.036 64.4849C201.036 64.4857 201.037 64.4865 201.037 64.4873C201.254 64.9165 201.464 65.3825 201.66 65.8802C201.671 65.9085 201.683 65.9365 201.693 65.9651C201.881 66.456 202.045 66.9561 202.184 67.4635Z" fill="#CDEFF8"/>
<path d="M203.684 66.8394C203.684 66.8394 203.158 67.0611 202.772 67.1766C202.759 67.1806 202.745 67.1847 202.732 67.1883C202.56 67.2376 202.422 67.262 202.382 67.2306C202.334 67.1924 202.166 66.7454 201.93 66.1388C201.889 66.0311 201.844 65.9182 201.798 65.8017C201.79 65.7813 201.782 65.7623 201.775 65.7425C201.752 65.6864 201.729 65.6295 201.707 65.572C201.612 65.3355 201.511 65.0887 201.405 64.8417C201.34 64.6887 201.273 64.5361 201.204 64.385C200.937 63.7976 200.652 63.2484 200.38 62.8873C200.38 62.8873 200.313 62.7941 200.301 62.7161C200.29 62.65 200.319 62.5945 200.46 62.6139L200.471 62.6195C200.557 62.6647 201.139 62.9819 201.8 63.621C201.881 63.6994 201.963 63.7826 202.046 63.8707C202.098 63.9259 202.149 63.9825 202.202 64.0417C202.277 64.1271 202.352 64.2166 202.426 64.3103L202.428 64.3123C202.633 64.5712 202.82 64.8446 202.986 65.1305C203.065 65.2663 203.141 65.4084 203.213 65.5568C203.291 65.7163 203.364 65.8825 203.432 66.056C203.532 66.3117 203.616 66.5733 203.684 66.8394Z" fill="#CDEFF8"/>
<path d="M180.534 62.9544C181.23 62.7886 192.48 61.7803 197.063 61.9468C197.25 61.9537 197.364 62.1668 197.376 62.3557C197.445 63.5302 197.63 67.9783 196.658 67.6432C196.658 67.6432 179.905 68.1869 175.283 68.52C174.876 68.5493 174.642 68.0582 174.918 67.7534C176.195 66.344 178.745 63.6928 180.46 62.9783C180.484 62.9683 180.509 62.9603 180.534 62.9544Z" fill="#CC0000"/>
<path d="M196.804 63.5921C196.846 65.04 196.804 67.3913 196.079 67.1693C196.079 67.1693 193.515 67.2538 190.18 67.3738C188.534 67.4333 186.701 67.501 184.895 67.5714C181.386 67.7089 177.981 67.8571 176.259 67.9726L176.185 67.9777C175.806 68.0037 175.59 67.5933 175.848 67.3372C177.041 66.1537 179.423 63.924 181.022 63.3199C181.045 63.3113 181.068 63.3045 181.091 63.2995C181.339 63.2455 183.018 63.0825 185.237 62.9107C187.67 62.7209 190.753 62.518 193.309 62.4305C194.527 62.3889 195.626 62.3735 196.476 62.398C196.65 62.4031 196.756 62.5814 196.766 62.7392C196.778 62.9342 196.792 63.2358 196.804 63.5921Z" fill="#CDEFF8"/>
<path d="M192.779 82.4433C186.352 82.8493 175.036 83.4638 170.166 83.1069L170.115 83.0095C170.029 82.768 170.038 82.503 170.141 82.2682C170.305 81.9074 170.44 81.4044 170.567 81.3176L170.592 81.3057C170.725 81.2726 170.822 76.5882 173.072 75.9912C173.072 75.9912 175.27 75.0216 176.774 74.5433C177.399 74.3448 177.904 74.2319 178.084 74.3063C178.697 74.5625 184.244 74.1126 184.244 74.1126C184.244 74.1126 184.54 74.1417 185.008 74.2132C186.52 74.4447 189.839 75.1186 190.833 76.6796C190.833 76.6796 192.289 79.2217 192.423 80.5976L192.779 82.4433Z" fill="#CC0000"/>
<path d="M172.113 70.8513C171.968 70.8501 170.714 71.1999 170.047 71.3427C170.411 70.8756 170.935 70.4572 171.692 70.1993C171.692 70.1993 172.268 69.6101 173.125 68.76L173.196 68.7095L196.951 67.6141C197.211 68.1258 196.205 68.8976 196.205 68.8976" fill="#F44E4E"/>
<path d="M192.779 82.4432C186.352 82.8502 175.036 83.4639 170.166 83.107L170.115 83.0093C170.029 82.7679 170.038 82.5029 170.141 82.2683C170.305 81.9072 170.44 81.4044 170.567 81.3174L170.592 81.3057L171.803 81.6108C172.923 81.8931 174.074 82.0269 175.229 82.0086C177.421 81.9734 179.614 81.9347 181.806 81.8923C184.095 81.8469 186.458 81.744 188.733 81.5229C189.96 81.4035 191.221 80.9157 192.423 80.5981L192.622 81.5903L192.779 82.4432Z" fill="#AF0C0C"/>
<path d="M186.172 77.4307C186.179 77.6009 186.152 77.7708 186.092 77.9305C186.033 78.0903 185.943 78.2368 185.827 78.3617C185.711 78.4866 185.572 78.5875 185.417 78.6585C185.262 78.7296 185.095 78.7695 184.925 78.7758L176.893 79.0762C176.721 79.0848 176.55 79.0592 176.388 79.001C176.226 78.9428 176.078 78.853 175.951 78.737C175.825 78.6209 175.722 78.4809 175.65 78.325C175.578 78.1691 175.538 78.0004 175.531 77.8287C175.525 77.6571 175.552 77.4858 175.613 77.325C175.673 77.1641 175.765 77.0168 175.882 76.8916C176 76.7664 176.141 76.6659 176.298 76.5957C176.455 76.5256 176.624 76.4873 176.796 76.483L184.828 76.1827C185.171 76.1699 185.506 76.2942 185.758 76.5282C186.011 76.7622 186.16 77.0869 186.172 77.4307Z" fill="#AF0C0C"/>
<path d="M186.172 77.4308C186.204 77.5607 186.203 77.6965 186.17 77.8261C186.137 77.9557 186.073 78.0754 185.984 78.1747C185.894 78.2739 185.781 78.3498 185.656 78.3957C185.53 78.4416 185.395 78.4561 185.263 78.438L177.231 78.7383C177.071 78.8012 176.9 78.8282 176.729 78.8173C176.557 78.8064 176.391 78.7579 176.24 78.6753C176.09 78.5926 175.96 78.4779 175.859 78.3392C175.758 78.2005 175.688 78.0413 175.656 77.8729C175.623 77.7044 175.628 77.5309 175.67 77.3646C175.713 77.1982 175.791 77.0433 175.9 76.9106C176.009 76.778 176.145 76.671 176.3 76.5971C176.455 76.5233 176.624 76.4845 176.796 76.4835L184.828 76.1831C185.171 76.1703 185.506 76.2946 185.758 76.5285C186.01 76.7625 186.159 77.087 186.172 77.4308Z" fill="#EC2C2C"/>
<path d="M205.821 69.7604C205.713 69.8988 205.584 70.0195 205.439 70.1181C205.013 70.4178 204.494 70.5952 203.996 70.7281C201.772 71.3202 199.295 70.9757 197.078 70.5495C197.078 70.5495 196.926 69.9356 196.702 69.6597C197.01 70.0403 198.798 69.7312 199.167 69.6841C201.318 69.4111 203.072 68.5338 204.943 67.6012C205.263 68.3081 205.55 69.0306 205.821 69.7604Z" fill="#F44E4E"/>
<path d="M198.117 78.2782C198.038 79.0829 198.029 79.8928 198.09 80.699L198.084 80.7235C198.075 80.7708 198.048 80.8832 198.006 81.0301C197.998 81.0605 197.988 81.0929 197.978 81.1252L197.975 81.1338C197.908 81.35 197.807 81.6136 197.667 81.8448C197.607 81.9469 197.537 82.0424 197.457 82.1299C197.457 82.1299 196.372 82.209 194.617 82.3251L194.436 82.3371C194.048 82.3628 193.629 82.3898 193.184 82.4182L193.181 82.4184L192.779 82.4437L192.428 80.7393C192.422 80.6732 192.412 80.6042 192.4 80.5333C192.546 80.5416 192.692 80.5457 192.839 80.5454C193.885 80.543 194.915 80.2902 195.843 79.8083C196.771 79.3264 197.57 78.6294 198.174 77.7754C198.153 77.9392 198.133 78.107 198.117 78.2782Z" fill="#BB1010"/>
<path d="M170.839 79.9582C170.69 80.7943 170.645 81.4356 170.597 81.4478L170.572 81.4593C170.445 81.5468 170.31 82.0488 170.146 82.4103C169.972 82.7955 170.158 83.1044 170.158 83.1044L169.956 83.0912C169.852 83.0829 169.753 83.0737 169.656 83.0643C169.4 83.0393 169.167 83.0103 168.96 82.9789C168.96 82.9789 168.607 82.4593 168.395 81.8527C168.375 81.7957 168.356 81.7376 168.339 81.6792C168.278 81.4757 168.238 81.2689 168.236 81.0724C168.638 81.0593 169.028 80.9279 169.356 80.6947C170.022 80.2143 170.389 79.4153 170.569 78.6141C170.575 78.7296 170.588 78.8448 170.606 78.9591C170.655 79.2917 170.748 79.6258 170.839 79.9582Z" fill="#BB1010"/>
<path d="M192.779 82.4439L192.428 80.7394C192.421 80.6734 192.412 80.6044 192.399 80.5334C192.157 79.1253 190.837 76.8218 190.837 76.8218C189.536 74.7778 184.249 74.255 184.249 74.255C184.249 74.255 178.702 74.7047 178.089 74.4485C177.476 74.1923 173.077 76.1334 173.077 76.1334C171.655 76.5106 171.093 78.5218 170.839 79.9586C170.691 80.7946 170.646 81.4359 170.598 81.4481L170.572 81.4596C170.446 81.5472 170.311 82.0492 170.147 82.4106C169.973 82.7959 170.158 83.1047 170.158 83.1047L169.956 83.0915L169.66 83.0726L169.656 83.0647C169.634 83.0127 169.533 82.7208 169.753 82.2328C169.806 82.1163 169.858 81.9773 169.908 81.8429C170.016 81.5541 170.095 81.3429 170.219 81.2014C170.231 81.1218 170.246 81.0076 170.26 80.9023C170.325 80.4176 170.42 79.7052 170.606 78.9599C170.948 77.5863 171.599 76.1011 172.934 75.7254C173.447 75.4992 176.816 74.0341 177.883 73.9942C178.032 73.9886 178.154 74.0068 178.258 74.05C178.296 74.0616 178.606 74.1314 180.213 74.0713C181.972 74.0055 184.194 73.8261 184.217 73.8244L184.255 73.8213L184.294 73.8249C184.519 73.8471 189.806 74.394 191.205 76.5896C191.274 76.7096 192.623 79.0764 192.841 80.5455C192.848 80.5895 192.853 80.6326 192.858 80.6751L193.182 82.4187L193.185 82.4331L192.779 82.4439Z" fill="#AF0C0C"/>
<g opacity="0.51">
<path opacity="0.51" d="M197.085 70.7369C196.954 71.5301 196.888 72.6744 196.056 72.9815C194.959 73.3864 193.565 73.4693 192.408 73.6197C187.589 74.2455 188.921 73.7761 188.04 73.4817C188.04 73.4817 189.36 72.285 191.312 71.2044C191.774 70.947 192.321 70.7248 192.968 70.5656C192.968 70.5656 194.544 70.036 195.33 69.6623C195.805 69.4362 196.375 69.5052 196.766 69.857C196.899 69.9763 197.007 70.1236 197.061 70.3049C197.103 70.4451 197.111 70.593 197.085 70.7369Z" fill="#AF0C0C"/>
</g>
<path d="M185.008 74.2132C184.676 74.2724 184.41 74.3443 184.257 74.4314C183.445 74.8947 180.832 77.8373 177.974 74.7343C177.974 74.7343 177.446 74.6445 176.774 74.5433C177.398 74.3448 177.903 74.2319 178.083 74.3063C178.696 74.5625 184.243 74.1126 184.243 74.1126C184.243 74.1126 184.54 74.1417 185.008 74.2132Z" fill="#AF0C0C"/>
<path d="M173.459 72.264C173.459 72.264 178.587 72.2959 178.986 72.1451C178.986 72.1451 180.706 70.3767 183.254 71.9587C183.254 71.9587 190.086 71.6489 190.69 71.5182C190.69 71.5182 189.25 72.8209 189.064 73.6213C189.064 73.6213 185.057 73.6494 184.245 74.1121C183.432 74.5749 180.819 77.5178 177.961 74.4148C177.961 74.4148 174.676 73.8568 174.067 73.9519C174.068 73.9523 173.861 73.3318 173.459 72.264Z" fill="#CC0000"/>
<g opacity="0.51">
<path opacity="0.51" d="M174.111 74.1969L172.296 74.2724C171.586 74.3019 170.664 74.5016 169.969 74.3594C168.685 74.0968 169.58 72.229 170.068 71.6084C170.324 71.2817 170.64 71.0065 170.999 70.7971C171.175 70.6946 171.383 70.662 171.582 70.7059C171.78 70.7498 171.955 70.8669 172.072 71.034C172.295 71.3528 172.592 71.7457 172.88 72.036L172.882 72.0359C172.968 72.1256 173.061 72.2085 173.16 72.2839C173.47 72.5141 173.734 72.8012 173.937 73.1299C174.215 73.5801 175.199 73.9562 175.341 74.03C175.144 74.0373 174.308 74.1887 174.111 74.1969Z" fill="#AF0C0C"/>
</g>
<path d="M174.692 73.8956L174.101 73.92L172.286 73.9955C171.575 74.0252 170.654 74.2249 169.959 74.0825C168.955 73.8767 169.283 72.6915 169.706 71.8867C169.807 71.6918 169.925 71.5059 170.057 71.3313C170.134 71.2339 170.215 71.141 170.302 71.0529C170.506 70.8458 170.737 70.6663 170.989 70.5191C171.165 70.4167 171.373 70.3843 171.571 70.4282C171.77 70.4721 171.945 70.5892 172.062 70.7563C172.285 71.0749 172.582 71.4682 172.87 71.7585L172.871 71.7584C172.958 71.848 173.051 71.9308 173.15 72.0062C173.46 72.2364 173.724 72.5235 173.927 72.8522C174.055 73.0593 174.197 73.2813 174.327 73.4673L174.347 73.4966C174.492 73.7014 174.619 73.8577 174.692 73.8956Z" fill="#FFEAD2"/>
<path d="M197.078 70.5495C196.947 71.3427 196.881 72.4869 196.049 72.794C194.952 73.1989 193.564 73.3491 192.401 73.4319C191.239 73.5148 190.071 73.5926 188.921 73.7762C188.921 73.7762 189.254 72.4818 190.656 71.4351C190.862 71.2812 191.079 71.1417 191.304 71.0174C191.766 70.7599 192.313 70.5376 192.96 70.3786C192.96 70.3786 194.536 69.849 195.322 69.475C195.798 69.2502 196.367 69.3179 196.758 69.6698C196.82 69.7245 196.875 69.786 196.923 69.8531C196.981 69.9333 197.025 70.0227 197.054 70.1174C197.095 70.2576 197.104 70.4055 197.078 70.5495Z" fill="#FFEAD2"/>
<path d="M205.957 78.8735C205.941 79.0771 205.917 79.2946 205.88 79.5109C205.809 79.926 205.691 80.3379 205.501 80.6455C205.348 80.8916 205.148 81.071 204.886 81.1313L203.433 81.332L201.352 81.619L201.343 81.6193C201.377 81.459 201.401 81.2969 201.416 81.1339C201.424 81.0584 201.431 80.9749 201.437 80.8846C201.522 79.5123 201.255 78.141 200.661 76.9009C200.661 76.9001 200.661 76.8994 200.661 76.8986C200.643 76.8606 200.624 76.8228 200.605 76.7846C200.605 76.7846 200.605 76.7827 200.605 76.7788C200.604 76.7581 200.6 76.6961 200.592 76.5997C201.206 77.3611 202.062 77.9265 202.979 78.2825C203.927 78.6498 204.94 78.8107 205.957 78.8735Z" fill="#BB1010"/>
<path d="M203.016 68.7579C203.067 68.867 203.112 68.978 203.155 69.0901C203.176 69.146 203.198 69.2017 203.218 69.2581L203.249 69.3425L203.278 69.4275C203.355 69.6543 203.429 69.8818 203.492 70.1126L203.516 70.1987L203.54 70.2853L203.586 70.4584L203.629 70.6324C203.643 70.6902 203.658 70.7481 203.67 70.8066C203.723 71.0395 203.775 71.2725 203.817 71.5074C203.839 71.6248 203.861 71.742 203.879 71.86C203.897 71.978 203.919 72.0952 203.934 72.2137L203.959 72.3909C203.967 72.4498 203.976 72.5089 203.982 72.568L204.025 72.9234L204.06 73.2795C204.067 73.3387 204.07 73.3982 204.075 73.4576L204.089 73.636C204.093 73.6955 204.099 73.7549 204.102 73.8144L204.112 73.9932L204.122 74.1717L204.127 74.2612L204.13 74.3505L204.142 74.7083C204.145 74.8275 204.145 74.947 204.146 75.0662L204.148 75.2452C204.149 75.3048 204.147 75.3645 204.147 75.4242L204.142 75.7823C204.127 76.2592 204.107 76.7362 204.068 77.2139C203.992 78.1676 203.866 79.1177 203.709 80.0664C203.96 79.1363 204.141 78.1888 204.25 77.2317L204.271 77.052C204.277 76.9921 204.285 76.9324 204.29 76.8724L204.321 76.5118C204.325 76.4518 204.331 76.3917 204.335 76.3315L204.345 76.151L204.364 75.7896C204.38 75.3072 204.384 74.8241 204.364 74.3414C204.343 73.8586 204.306 73.377 204.246 72.8976C204.185 72.4182 204.102 71.9417 203.995 71.4708C203.89 70.9991 203.758 70.5339 203.6 70.0775L203.539 69.9071L203.474 69.738C203.454 69.6814 203.429 69.6261 203.408 69.5701C203.386 69.5142 203.362 69.4588 203.337 69.4036C203.244 69.1819 203.137 68.9663 203.016 68.7579Z" fill="#CC0000"/>
<g opacity="0.33">
<path opacity="0.54" d="M201.037 64.4874L199.426 67.0971C199.332 66.8697 199.244 66.6189 199.162 66.3644C199.095 66.1573 199.033 65.9478 198.977 65.7462C198.902 65.4798 198.837 65.2255 198.784 65.0096C199.154 64.1377 199.722 63.044 200.075 62.844C200.15 62.9554 200.226 63.0717 200.303 63.1929C200.419 63.375 200.536 63.5696 200.653 63.7741C200.782 63.9983 200.909 64.2351 201.036 64.4845C201.036 64.4854 201.037 64.4864 201.037 64.4874Z" fill="white"/>
</g>
<g opacity="0.33">
<path opacity="0.54" d="M203.432 66.0551L202.732 67.1883C202.56 67.2376 202.422 67.262 202.382 67.2306C202.334 67.1924 202.166 66.7454 201.93 66.1388C201.889 66.031 201.844 65.9182 201.798 65.8017C201.79 65.7813 201.782 65.7623 201.775 65.7425C201.966 65.2534 202.183 64.7752 202.427 64.3101L202.428 64.3121C202.634 64.5709 202.821 64.8444 202.987 65.1303C203.066 65.266 203.142 65.4081 203.214 65.5566C203.291 65.7154 203.365 65.8821 203.432 66.0551Z" fill="white"/>
</g>
<path d="M199.222 68.4129L199.474 69.0526C199.474 69.0526 203.191 69.3375 204.11 68.1218C204.11 68.1218 204.262 65.4292 200.297 66.479C199.862 66.5945 200.347 68.2805 200.347 68.2805C200.347 68.2805 199.624 68.5241 199.222 68.4129Z" fill="#AF0C0C"/>
<g opacity="0.54">
<path opacity="0.54" d="M193.309 62.4309L184.895 67.5718C181.386 67.7092 177.981 67.8575 176.259 67.973C177.981 67.0068 181.715 64.9115 185.236 62.9111C187.67 62.7211 190.753 62.5184 193.309 62.4309Z" fill="white"/>
<path opacity="0.54" d="M196.804 63.5922C196.846 65.04 196.804 67.3914 196.079 67.1694C196.079 67.1694 193.515 67.2539 190.18 67.3738C192.555 66.0294 194.988 64.6445 196.804 63.5922Z" fill="white"/>
</g>
<path d="M196.772 70.4445C194.747 71.2685 192.636 72.0124 190.504 72.0271C190.71 71.8732 190.927 71.7337 191.152 71.6094C191.614 71.3519 192.162 71.1296 192.808 70.9704C192.808 70.9704 194.384 70.441 195.171 70.067C195.646 69.8422 196.215 69.9099 196.607 70.2618C196.668 70.3163 196.724 70.3775 196.772 70.4445Z" fill="white"/>
<path d="M174.297 73.6648C173.155 73.2714 172.074 72.7203 171.085 72.0275C170.792 71.8221 170.499 71.5811 170.255 71.3111C170.46 71.1101 170.692 70.9367 170.942 70.795C171.306 70.5882 171.773 70.6894 172.015 71.0224C172.237 71.3299 172.533 71.7089 172.821 71.9889L172.823 71.9888C172.909 72.075 173.002 72.1546 173.101 72.2269C173.409 72.4468 173.673 72.7237 173.877 73.0425C174.004 73.2421 174.146 73.4563 174.276 73.6357C174.283 73.6462 174.29 73.6555 174.297 73.6648Z" fill="white"/>
<path d="M223.094 31.266L216.631 37.6263H132.228L139.229 31.266H223.094Z" fill="#88CADB"/>
<path d="M152.464 158.378L145.505 164.649H103.109L110.026 158.378H152.464Z" fill="#88CADB"/>
<path d="M231.488 48.265V87.1699L225.128 92.9013V54.0315L231.488 48.265Z" fill="#88CADB"/>
<path opacity="0.62" d="M225.128 54.0314V92.9013L152.463 158.378H110.026L225.128 54.0314Z" fill="white"/>
<path opacity="0.44" d="M216.631 37.6263L93.9167 158.381H41.2123C40.669 158.381 40.1479 158.165 39.7637 157.781C39.3795 157.397 39.1636 156.876 39.1636 156.332V122.173L132.228 37.6263H216.631Z" fill="white"/>
<path d="M139.439 41.8719C139.49 41.8359 139.54 41.7973 139.588 41.7571C139.545 41.8032 139.495 41.8419 139.439 41.8719Z" fill="#530905"/>
<path d="M139.439 41.8719C139.49 41.8359 139.54 41.7973 139.588 41.7571C139.545 41.8032 139.495 41.8419 139.439 41.8719Z" fill="#72120C"/>
<path d="M132.15 136.357C135.261 125.178 136.609 113.581 136.142 101.987C134.119 101.111 130.769 102.124 129.488 103.919C128.206 105.714 127.842 107.992 127.628 110.186C127.037 116.229 127.307 122.324 128.429 128.29C129.025 131.45 130.831 133.424 132.15 136.357Z" fill="#070208"/>
<path d="M136.138 39.8508C138.907 40.0016 141.125 36.8608 140.158 34.2719C140.104 34.1253 139.998 33.9561 139.842 33.9721C139.181 33.4695 138.234 33.586 137.482 33.9411C136.002 34.6404 134.886 36.1622 134.875 37.7988" fill="#530905"/>
<path d="M122.485 41.8962C121.546 44.6793 120.369 47.6342 118.323 49.7859C120.8 51.2689 123.234 52.8225 125.623 54.4468C126.105 54.7751 126.607 55.1294 126.862 55.6546C126.898 53.4206 127.474 51.2286 128.542 49.2658C129.303 47.8679 128.212 46.3042 127.253 45.0336C126.294 43.7631 124.934 42.8434 123.498 42.1575C123.176 42.0034 122.816 41.856 122.47 41.9456C122.448 42.031 122.515 41.8116 122.485 41.8962Z" fill="#F2AD94"/>
<path d="M136.536 40.2352C136.471 40.5543 136.407 40.85 136.355 41.1054C136.191 41.9275 135.977 42.7386 135.713 43.5344C135.678 43.6424 135.641 43.7496 135.604 43.8568C135.534 44.0587 135.461 44.258 135.384 44.4565C135.333 44.5905 135.28 44.7228 135.227 44.8552C135.166 45.0059 135.102 45.155 135.038 45.3049C134.787 45.8812 134.509 46.4429 134.205 46.9901L134.156 47.0739C134.147 47.0931 134.136 47.1107 134.125 47.1291C134.091 47.192 134.055 47.2539 134.018 47.3159C133.967 47.4047 133.914 47.4935 133.862 47.5806C133.836 47.6241 133.809 47.6643 133.778 47.7112C133.047 48.9224 132.228 50.2557 130.991 50.9953C129.4 51.9476 127.905 50.9115 126.501 50.105C125.893 49.7557 125.407 49.2322 124.937 48.7105C123.81 47.4541 122.695 46.1274 122.16 44.5294C121.942 43.8761 121.825 43.1893 121.711 42.5142C121.615 41.9405 121.518 41.3584 121.587 40.7813C121.649 40.2788 121.834 39.7995 122.128 39.3868C122.664 38.633 123.516 38.1639 124.366 37.7887C124.673 37.653 124.984 37.5269 125.298 37.4102C126.502 36.9591 127.75 36.6385 129.021 36.4537C129.748 36.3473 130.523 36.3825 131.227 36.1949C131.8 36.0444 132.386 35.9451 132.977 35.8984C133.535 35.8523 134.027 35.6379 134.586 35.5399C135.382 35.4 136.376 35.4293 136.697 36.3213C137.071 37.3524 136.793 38.973 136.536 40.2352Z" fill="#FCDCCD"/>
<path d="M136.535 40.2352C134.385 40.2687 132.24 38.968 131.332 37.0064C131.096 36.4939 131.348 37.1346 130.803 37.2812C130.259 37.4277 129.831 37.8423 129.442 38.2511C128.749 38.9839 128.084 39.7654 127.242 40.3215C126.399 40.8776 125.322 41.1858 124.368 40.8584C125.005 39.8533 125.038 38.5794 125.302 37.4101C126.505 36.9591 127.753 36.6385 129.025 36.4537C129.751 36.3473 130.527 36.3825 131.23 36.1949C131.804 36.0444 132.39 35.9451 132.981 35.8984C133.539 35.8523 134.03 35.6379 134.59 35.5399C135.385 35.4 136.379 35.4293 136.7 36.3213C137.07 37.3524 136.792 38.973 136.535 40.2352Z" fill="#F2AD94"/>
<path d="M137.059 38.6382C136.087 38.8785 134.829 38.4154 133.929 38.0318C133.619 37.9003 130.963 35.7762 130.663 36.1967L130.014 37.0937C129.891 37.2653 129.728 37.4051 129.54 37.5015C129.352 37.5979 129.143 37.6482 128.931 37.6482H127.976C127.826 38.0949 127.672 38.5376 127.514 38.9765C127.312 39.5435 127.228 40.2328 126.699 40.6106C126.245 40.9355 125.805 40.7362 125.293 40.7253C125.128 40.7213 124.963 40.7434 124.804 40.7906C124.456 39.6943 124.319 39.1156 123.296 39.0008C122.187 38.8769 121.384 41.0361 121.755 42.2672C121.882 42.7214 122.076 43.1541 122.33 43.5512C121.987 44.0814 121.597 44.6166 121.081 44.8913C120.196 45.3586 119.49 44.5127 119.033 43.8385C118.866 43.5948 118.719 43.336 118.578 43.0847C118.501 42.9448 118.422 42.7874 118.461 42.6333C118.495 42.5009 118.607 42.4071 118.708 42.3158C120.19 40.9757 119.735 39.2621 120.08 37.5418C120.391 35.9907 120.903 34.4253 121.677 33.0433C122.49 31.5919 123.508 30.1119 125.315 29.9184C125.672 29.8682 126.035 29.945 126.341 30.1354C126.029 29.9243 126.821 29.6178 126.909 29.6002C127.215 29.5399 127.629 29.5013 127.957 29.4662C129.22 29.3296 130.397 29.575 131.579 30.0223C133.073 30.5893 134.326 31.6689 135.864 32.1421C136.54 32.3395 137.238 32.449 137.942 32.4679C138.093 32.4679 139.653 32.2167 139.597 32.1329C141.109 34.5501 139.97 37.9187 137.059 38.6382Z" fill="#72120C"/>
<path d="M97.8879 168.729C97.7986 168.777 97.7053 168.817 97.609 168.848C97.2943 168.774 96.9906 168.66 96.7052 168.508C95.9313 168.108 95.2328 167.474 94.6767 166.882C94.0242 166.188 89.9336 158.765 90.8583 158.444C90.4321 158.593 90.069 158.881 89.8281 159.263C88.9483 157.738 88.3596 156.062 88.0919 154.321C88.5944 153.841 89.2577 153.11 89.9973 152.373C91.298 151.079 92.845 149.769 94.2043 149.758C94.51 149.758 94.8442 150.044 95.1826 150.506C96.5092 152.316 97.8979 156.784 97.8979 156.788C98.1601 157.631 97.7103 158.456 97.5001 159.25C97.0235 161.051 96.8719 164.122 98.1425 165.65C98.7631 166.392 99.0311 168.113 97.8879 168.729Z" fill="#72120C"/>
<path d="M151.945 69.7948L150.154 52.2331C150.154 52.2331 134.649 56.3714 130.07 68.706L144.327 77.3638L151.945 69.7948Z" fill="url(#paint0_linear_18_345)"/>
<path d="M148.724 73.3972L152.149 70.4742L151.945 69.7924L148.672 69.315L144.513 72.5881L148.724 73.3972Z" fill="#75C1D4"/>
<path d="M141.526 175.838C141.526 175.838 137.359 176.747 135.861 176.801C134.57 176.846 133.298 176.614 132.017 176.504C130.819 176.504 129.404 176.039 128.295 176.174C128.255 176.553 128.25 176.928 128.236 177.311C127.589 177.457 122.017 176.635 122.078 176.316C122.14 175.981 122.139 175.06 122.166 174.014C122.171 173.834 122.176 173.651 122.181 173.467C122.248 171.624 122.443 169.62 123.228 169.64C123.295 169.64 130.095 169.813 131.369 169.866C132.643 169.92 131.853 170.44 132.548 170.975C132.57 170.993 132.597 171.012 132.627 171.033C133.464 171.619 136.563 173.168 136.716 173.22C136.87 173.272 139.656 173.381 140.672 173.7C141.327 173.908 141.493 174.737 141.527 175.301C141.54 175.48 141.539 175.659 141.526 175.838Z" fill="#72120C"/>
<path d="M122.674 144.931C122.674 144.931 114.961 149.197 114.14 149.935C113.858 150.186 112.098 151.16 109.912 152.323C105.745 154.54 100.029 157.459 100.029 157.459C100.029 157.459 98.5526 157.95 97.7327 157.626L94.2083 149.76C94.2083 149.76 97.2435 147.052 97.8181 146.807C98.3064 146.598 110.214 137.453 117.061 134.349C118.275 133.798 119.331 133.438 120.135 133.351L122.321 132.902C122.321 132.902 123.661 133.202 123.744 134.104C123.828 135.006 122.674 144.931 122.674 144.931Z" fill="#39363A"/>
<path d="M122.674 144.931C122.674 144.931 114.961 149.197 114.14 149.935C113.858 150.186 112.098 151.16 109.912 152.323C113.748 147.016 116.203 140.838 117.057 134.345C118.271 133.794 119.326 133.434 120.13 133.347L122.316 132.898C122.316 132.898 123.657 133.198 123.74 134.1C123.824 135.002 122.674 144.931 122.674 144.931Z" fill="#070208"/>
<path d="M134.592 136.245C134.592 136.245 132.52 169.161 132.76 169.715C132.999 170.27 122.24 170.034 122.559 169.317C122.878 168.6 121.395 159.319 121.205 157.575C120.397 150.164 119.831 142.721 119.138 135.296C118.719 130.819 118.066 126.308 117.838 121.818C117.526 115.725 113.682 111.615 112.163 105.833C112.031 105.334 111.911 104.818 111.802 104.287L121.524 103.33L132.021 103.025L133.461 102.983C133.538 103.187 133.619 103.745 133.701 104.574C133.785 105.442 133.875 106.608 133.961 107.982C134.523 117.038 135.028 135.104 134.592 136.245Z" fill="#39363A"/>
<path d="M125.212 56.7098C126.024 56.6193 127.288 56.5289 128.1 57.3413C128.913 58.1537 135.323 68.3551 136.225 74.6786C136.545 76.9174 135.419 84.3942 135.419 84.3942C135.419 84.3942 138.721 98.9868 138.663 99.8612C138.572 101.216 138.933 103.923 136.135 104.736C133.337 105.548 129.183 104.736 129.183 104.736L122.594 65.8282L125.212 56.7098Z" fill="black"/>
<path d="M138.05 80.1185C138.05 80.1185 141.3 80.2994 142.835 79.4862C144.369 78.6729 146.078 76.9601 146.078 76.9601C146.078 76.9601 146.648 76.6846 146.873 76.5665C148.125 75.9124 147.594 75.1611 147.594 75.1611C147.594 75.1611 149.337 74.8185 149.186 73.9617C149.115 73.5731 148.728 73.3972 148.728 73.3972C148.728 73.3972 149.398 72.7624 149.433 72.5153C149.468 72.2682 149.468 71.8804 148.833 71.8804C148.198 71.8804 147.352 72.1978 147.352 72.1978L145.09 72.656C145.09 72.656 145.444 72.3034 144.738 72.0915C144.032 71.8796 141.104 71.7037 140.645 71.563C140.186 71.4223 136.8 74.0321 136.8 74.0321L138.05 80.1185Z" fill="#FCDCCD"/>
<path d="M148.724 73.3964C148.724 73.3964 149.112 73.5723 149.182 73.9609C149.338 74.8177 147.591 75.1603 147.591 75.1603C147.591 75.1603 148.121 75.9141 146.87 76.5657C146.644 76.6838 146.074 76.9594 146.074 76.9594C146.074 76.9594 144.365 78.673 142.831 79.4854L144.325 77.3597C144.325 77.3597 145.833 76.5925 145.357 75.796L147.097 74.6167L143.44 74.646L148.724 73.3964Z" fill="#F2AD94"/>
<path d="M134.637 80.2249C134.571 80.6646 134.53 80.931 134.53 80.931L118.641 50.0572L118.009 47.5295L119.454 45.2731C119.454 45.2731 129.023 52.9468 129.023 53.5783C129.022 53.6324 129.018 53.6864 129.009 53.7399C128.959 54.09 128.779 54.7056 128.585 55.3028C128.32 56.1294 128.03 56.9176 128.03 56.9176C128.03 56.9176 133.653 71.5328 133.923 73.3386C134.138 74.7708 134.886 78.5414 134.637 80.2249Z" fill="white"/>
<path d="M135.585 81.678L138.306 81.3756C138.306 81.3756 137.619 73.8753 137.014 73.6701C136.41 73.4649 133.771 74.8201 133.771 74.8201L135.585 81.678Z" fill="white"/>
<path d="M133.771 74.8244L135.585 81.6781L138.306 81.3757L136.739 79.5758L133.771 74.8244Z" fill="#D3E0DB"/>
<path d="M133.957 107.987C128.68 108.23 123.374 108.383 118.153 107.616C116.08 107.311 113.985 106.846 112.159 105.836C112.027 105.337 111.906 104.822 111.798 104.29L121.52 103.334L132.017 103.028C132.621 103.495 133.184 104.014 133.697 104.579C133.783 105.446 133.871 106.612 133.957 107.987Z" fill="#070208"/>
<path d="M137.341 103.788C137.341 103.788 133.705 104.96 130.655 104.96C124.457 104.96 114.507 106.887 109.465 103.098C109.268 102.95 109.057 102.779 109.01 102.537C108.963 102.295 109.086 102.078 109.195 101.867C110.819 98.7632 110.755 94.4842 111.096 90.6817C111.18 89.747 111.287 88.8391 111.45 87.9873C111.666 86.8599 111.694 84.854 111.598 82.4C111.272 74.099 109.532 60.6815 108.882 58.8958C108.045 56.5817 111.091 53.4266 114.876 51.5337C114.876 51.5337 115.915 50.9893 116.241 50.5287C116.27 50.4892 116.295 50.4461 116.314 50.4005L116.717 49.0186L117.161 47.4993C117.161 47.4993 121.398 49.6853 124.659 53.2608C125.607 54.3002 124.621 54.8471 126.05 56.9628C128.245 60.2141 130.879 66.1046 132.526 70.0168C133.494 72.315 134.122 73.9298 134.122 73.9298C134.122 73.9298 134.148 74.0203 134.197 74.1945C134.471 75.1996 135.438 79.0045 135.909 84.2493C136.001 85.2786 136.077 86.3641 136.12 87.4948C136.204 89.6096 136.331 91.7604 136.471 93.7764C136.858 99.2883 137.341 103.788 137.341 103.788Z" fill="#524E53"/>
<path d="M109.55 86.1874C110.164 86.8784 113.004 87.1087 113.619 86.9554C114.233 86.8021 121.832 86.2644 124.903 85.9571C127.973 85.6497 133.27 83.5776 134.575 83.3473C135.88 83.1169 136.268 82.2744 136.268 82.2744L136.193 85.4956C136.193 85.4956 133.229 86.5333 128.932 87.1263C124.634 87.7193 114.557 88.7562 114.557 88.7562L111.593 88.0149L109.55 86.1874Z" fill="#070208"/>
<path d="M134.2 74.1996C133.332 76.229 131.57 77.9426 129.532 78.8782C126.452 80.292 122.898 80.2342 119.55 79.7082C117.682 79.4142 115.649 78.8598 114.609 77.2793C114.022 76.3907 113.846 75.3044 113.696 74.2524C113.392 72.0991 113.152 69.8971 113.539 67.7589C113.926 65.6206 115.02 63.5159 116.868 62.3692C117.335 60.2017 116.268 59.4496 116.991 57.354C118.613 58.9237 119.871 60.8297 120.677 62.9379C121.542 65.1767 121.217 67.8979 122.084 70.0094C123.863 74.3336 129.859 72.1987 132.454 70.0822C132.48 70.0605 132.506 70.0412 132.531 70.0211C133.499 72.3193 134.127 73.9341 134.127 73.9341C134.127 73.9341 134.152 74.0254 134.2 74.1996Z" fill="#070208"/>
<path opacity="0.46" d="M136.474 93.7832C127.911 93.9538 119.367 92.9105 111.097 90.6842C111.181 89.7495 111.288 88.8416 111.451 87.9898C111.667 86.8625 111.695 84.8566 111.599 82.4025L111.644 82.3707C118.837 80.6189 126.379 80.9289 133.404 83.2652C134.259 83.5448 135.095 83.8759 135.91 84.2569C136.002 85.2862 136.077 86.3717 136.121 87.5024C136.208 89.6155 136.335 91.7664 136.474 93.7832Z" fill="#070208"/>
<path d="M112.62 54.0992C114.932 53.9778 119.145 56.7861 120.067 63.0811C120.988 69.3761 118.992 77.59 118.992 77.59C118.992 77.59 120.681 78.4342 122.754 77.6662C124.827 76.8982 129.739 75.3638 130.967 74.9023C132.196 74.4408 133.369 73.5806 134.125 73.9341C134.881 74.2875 136.444 82.9151 136.444 82.9151C136.444 82.9151 135.88 83.1161 134.575 83.3465C133.27 83.5768 127.976 85.6497 124.903 85.9596C121.83 86.2695 114.232 86.8039 113.618 86.958C113.005 87.1121 110.164 86.8809 109.55 86.1899C108.936 85.499 106.633 72.0856 106.633 69.7622C106.633 57.1596 109.703 54.2533 112.62 54.0992Z" fill="#524E53"/>
<path d="M134.975 91.0293C135.292 91.4305 135.032 92.1307 134.531 92.2279C134.029 92.325 133.525 91.7747 133.669 91.2848C133.812 90.7948 134.531 90.5979 134.902 90.9497" fill="#530905"/>
<path d="M148.473 73.4584C146.887 74.0019 143.879 74.579 142.236 74.9107L148.473 73.4584Z" fill="#F2AD94"/>
<path d="M147.418 75.1552C146.562 75.4475 143.544 76.2834 142.133 76.3504L147.418 75.1552Z" fill="#F2AD94"/>
<path d="M145.793 76.9141C144.955 77.214 143.072 77.5004 142.185 77.5842L145.793 76.9141Z" fill="#F2AD94"/>
<path d="M145.511 72.4491C143.803 72.7724 142.075 72.98 140.34 73.0706L145.511 72.4491Z" fill="#F2AD94"/>
<path d="M135.713 43.5327C135.678 43.6408 135.641 43.748 135.603 43.8552C135.534 44.057 135.461 44.2564 135.384 44.4549C135.165 44.7983 134.956 45.181 135.037 45.3033C135.011 45.2696 134.991 45.2313 134.979 45.1902C134.781 44.6157 134.677 42.6776 135.475 42.5101C135.597 42.8258 135.587 43.1918 135.713 43.5327Z" fill="#F2AD94"/>
<path d="M135.472 46.9692C135.439 47.0309 135.398 47.0873 135.349 47.1367C135.294 47.1914 135.232 47.2377 135.164 47.2741C135.092 47.3119 135.016 47.34 134.936 47.3579L134.911 47.3646C134.614 47.4192 134.307 47.4017 134.018 47.3135C133.64 47.2079 133.29 47.0153 133.096 46.8L133.129 46.7339L135.51 41.8593C135.336 42.8475 135.241 43.8478 135.225 44.8511C135.225 44.8661 135.225 44.8804 135.225 44.8954C135.218 45.5161 135.788 46.3771 135.472 46.9692Z" fill="#FCDCCD"/>
<path d="M134.293 31.6957C135.036 32.101 135.875 32.3 136.722 32.2719C137.257 32.2535 137.843 32.1044 138.145 31.6647C138.509 32.0164 138.86 32.3925 139.094 32.8372C139.329 33.282 139.439 33.8172 139.301 34.3038C137.71 34.3365 136.035 34.1664 134.562 33.5634" fill="#72120C"/>
<path d="M129.009 53.7399C128.959 54.09 128.779 54.7056 128.585 55.3028C127.637 55.3262 126.685 55.3103 125.668 55.2902C126.531 54.7793 127.968 54.2759 128.831 53.7658C128.82 53.832 128.96 53.8278 128.944 53.7658L129.009 53.7399Z" fill="#D3E0DB"/>
<path d="M97.7329 167.404L96.7052 168.508C95.9313 168.108 95.2328 167.473 94.6767 166.882C94.0242 166.188 89.9336 158.764 90.8583 158.444C90.4321 158.592 90.069 158.881 89.8281 159.263C88.9483 157.737 88.3596 156.062 88.0919 154.321C88.5944 153.84 89.2577 153.109 89.9973 152.372C91.0543 157.989 93.7654 163.289 97.7329 167.404Z" fill="#070208"/>
<path d="M141.526 175.838C141.526 175.838 137.359 176.747 135.861 176.801C134.57 176.846 133.298 176.614 132.017 176.504C130.819 176.504 129.404 176.039 128.295 176.174C128.255 176.553 128.25 176.928 128.236 177.311C127.589 177.457 122.017 176.635 122.078 176.316C122.14 175.981 122.139 175.06 122.166 174.014C128.479 175.667 135.05 176.104 141.527 175.301C141.54 175.48 141.539 175.659 141.526 175.838Z" fill="#070208"/>
<path d="M97.8878 168.729L97.4607 167.684C96.2504 165.575 95.0845 163.389 94.6314 161.001C94.2017 158.74 94.4321 156.407 94.6649 154.117C94.7665 153.112 94.8684 152.107 94.9706 151.101C94.985 150.887 95.0583 150.681 95.1825 150.506C96.5092 152.316 97.8979 156.783 97.8979 156.788C98.16 157.631 97.7103 158.456 97.5 159.25C97.0235 161.051 96.8719 164.122 98.1424 165.65C98.7631 166.392 99.0311 168.112 97.8878 168.729Z" fill="#530905"/>
<path d="M132.627 171.033C130.784 171.871 128.88 172.568 126.931 173.118C125.727 173.453 124.485 173.742 123.237 173.65C122.88 173.623 122.527 173.562 122.182 173.467C122.249 171.624 122.444 169.62 123.228 169.64C123.295 169.64 130.096 169.813 131.37 169.866C132.644 169.92 131.854 170.44 132.549 170.975C132.57 170.993 132.597 171.012 132.627 171.033Z" fill="#530905"/>
<path opacity="0.51" d="M130.463 44.4818C130.718 43.8465 129.996 42.9586 128.851 42.4987C127.706 42.0388 126.571 42.181 126.315 42.8163C126.06 43.4516 126.782 44.3394 127.927 44.7993C129.072 45.2592 130.207 45.1171 130.463 44.4818Z" fill="#F68E6E"/>
<path d="M129.578 46.434C129.726 47.4072 130.705 48.4775 131.773 48.336" stroke="#72120C" stroke-width="0.5" stroke-miterlimit="10" stroke-linecap="round"/>
<path d="M135.346 47.1374C135.292 47.1921 135.23 47.2384 135.162 47.2748C135.09 47.3126 135.013 47.3407 134.934 47.3585L134.909 47.3652C134.611 47.4199 134.305 47.4023 134.015 47.3141C133.964 47.4029 133.911 47.4917 133.858 47.5788C133.832 47.6224 133.806 47.6626 133.775 47.7095C133.441 47.4345 133.178 47.0838 133.007 46.6868L133.124 46.7345C133.448 46.8754 133.785 46.9875 134.129 47.0696C134.527 47.168 134.94 47.191 135.346 47.1374Z" fill="#F2AD94"/>
<path d="M121.842 53.6562C119.948 52.669 118.082 51.6282 116.244 50.5338C116.274 50.4943 116.298 50.4512 116.317 50.4057L116.721 49.0237C118.33 50.6726 120.041 52.2197 121.842 53.6562Z" fill="#070208"/>
<defs>
<linearGradient id="paint0_linear_18_345" x1="149.173" y1="73.7271" x2="139.125" y2="59.0214" gradientUnits="userSpaceOnUse">
<stop stop-color="white"/>
<stop offset="1" stop-color="white" stop-opacity="0"/>
</linearGradient>
</defs>
</svg>
